<svg xmlns="http://www.w3.org/2000/svg" width="271" height="206.755" viewBox="0 0 271 206.755">
  <g id="Group_71" data-name="Group 71" transform="translate(0 0)">
    <circle id="Ellipse_5" data-name="Ellipse 5" cx="17.172" cy="17.172" r="17.172" transform="translate(21.538 87.739)" fill="#ffcc48"/>
    <path id="Path_1" data-name="Path 1" d="M364.07,439.669h-.017a2.283,2.283,0,0,1-2.281-2.281V303.5a2.283,2.283,0,0,1,2.281-2.281H476.746a2.283,2.283,0,0,1,2.281,2.281V407.606a2.283,2.283,0,0,1-2.263,2.281Z" transform="translate(-290.193 -237.761)" fill="#f2f2f2"/>
    <path id="Path_2" data-name="Path 2" d="M538.094,141.453H485.772v-30.32a2.418,2.418,0,0,1,2.415-2.415h47.492a2.418,2.418,0,0,1,2.415,2.415Zm-51.785-.537h51.249V111.133a1.88,1.88,0,0,0-1.878-1.878H488.187a1.88,1.88,0,0,0-1.878,1.878Z" transform="translate(-380.921 -96.912)" fill="#3f3d56"/>
    <path id="Path_3" data-name="Path 3" d="M440.419,87h22.539a2.147,2.147,0,0,1,2.147,2.147v32.2H438.272v-32.2A2.147,2.147,0,0,1,440.419,87Z" transform="translate(-320.676 -63.657)" fill="#e6e6e6"/>
    <path id="Path_4" data-name="Path 4" d="M527.773,77.061h-11v-11a1.343,1.343,0,0,1,1.342-1.342h8.318a1.343,1.343,0,0,1,1.342,1.342Zm-10.464-.537h9.928V66.06a.806.806,0,0,0-.8-.8h-8.318a.806.806,0,0,0-.8.8Z" transform="translate(-403.603 -64.718)" fill="#3f3d56"/>
    <path id="Path_5" data-name="Path 5" d="M843.164,501.487c-.107,0-.211,0-.318,0a27.24,27.24,0,0,1-17.949-7.016q-.273-.249-.542-.5l-.083-.079V442.462l.026-.054c.178-.377.358-.748.538-1.119,5.581-11.331,12.09-17.57,18.329-17.57,9,0,15.974,12.341,19.332,19.7,4.67,10.229,7.932,22.9,7.932,30.824a27.255,27.255,0,0,1-26.952,27.245C843.375,501.487,843.268,501.487,843.164,501.487Zm-18.356-7.832q.223.211.449.416a26.706,26.706,0,0,0,17.6,6.877c.109,0,.211,0,.315,0s.2,0,.295,0a26.807,26.807,0,0,0,26.425-26.708c0-7.851-3.242-20.435-7.883-30.6-3.3-7.239-10.147-19.383-18.844-19.383-6.023,0-12.361,6.133-17.847,17.269-.17.35-.341.7-.509,1.058Z" transform="translate(-628.596 -327.393)" fill="#3f3d56"/>
    <path id="Path_6" data-name="Path 6" d="M893.835,661.273a.309.309,0,0,1-.309-.309V597.945a.309.309,0,0,1,.617,0v63.019A.309.309,0,0,1,893.835,661.273Z" transform="translate(-679.268 -454.646)" fill="#ccc"/>
    <path id="Path_7" data-name="Path 7" d="M296.835,661.273a.309.309,0,0,1-.309-.309V597.945a.309.309,0,1,1,.617,0v63.019A.309.309,0,0,1,296.835,661.273Z" transform="translate(-242.454 -454.646)" fill="#ccc"/>
    <path id="Path_8" data-name="Path 8" d="M851.5,592.16a.308.308,0,0,1-.233-.106l-15.526-17.9a.309.309,0,0,1,.467-.4l15.526,17.9a.309.309,0,0,1-.233.511Z" transform="translate(-636.93 -437.086)" fill="#ccc"/>
    <path id="Path_9" data-name="Path 9" d="M893.835,655.439a.309.309,0,0,1-.218-.527l8.822-8.822a.309.309,0,0,1,.437.437l-8.822,8.822a.308.308,0,0,1-.218.09Z" transform="translate(-679.268 -490.032)" fill="#ccc"/>
    <path id="Path_10" data-name="Path 10" d="M938.195,803.086H915.119v-.268a11.538,11.538,0,0,1,23.077,0Zm-22.537-.537h22a11,11,0,0,0-22,0Z" transform="translate(-695.067 -596.331)" fill="#3f3d56"/>
    <path id="Path_11" data-name="Path 11" d="M947.323,809.875a.3.3,0,0,0-.3.3v3.236l-3.152-2.705a.3.3,0,1,0-.4.462l3.549,3.046v1.9a.3.3,0,0,0,.609,0V810.18a.3.3,0,0,0-.3-.3Z" transform="translate(-715.733 -609.937)" fill="#3f3d56"/>
    <path id="Path_12" data-name="Path 12" d="M217.2,803.086H194.119v-.268a11.538,11.538,0,1,1,23.077,0Zm-22.537-.537h22a11,11,0,0,0-22,0Z" transform="translate(-167.524 -596.331)" fill="#3f3d56"/>
    <path id="Path_13" data-name="Path 13" d="M226.323,809.875a.3.3,0,0,0-.3.3v3.236l-3.152-2.705a.3.3,0,0,0-.4.462l3.549,3.046v1.9a.3.3,0,1,0,.609,0V810.18a.3.3,0,0,0-.3-.3Z" transform="translate(-188.19 -609.937)" fill="#3f3d56"/>
    <path id="Path_14" data-name="Path 14" d="M224.328,501.487c-.107,0-.211,0-.318,0a27.256,27.256,0,0,1-26.948-27.245c0-7.92,3.262-20.6,7.932-30.824,3.359-7.356,10.336-19.7,19.335-19.7,3.706,0,7.438,2.112,11.093,6.279.181.205.363.417.542.634l.061.074v68.149l-.151.073c-.181.088-.364.17-.547.249a27,27,0,0,1-10.686,2.308C224.54,501.487,224.432,501.487,224.328,501.487Zm0-77.232c-8.7,0-15.541,12.144-18.846,19.383-4.642,10.167-7.883,22.75-7.883,30.6a26.809,26.809,0,0,0,26.421,26.708c.109,0,.21,0,.315,0s.2,0,.295,0a26.471,26.471,0,0,0,10.481-2.263c.127-.055.252-.111.377-.168V430.9c-.155-.187-.312-.369-.47-.547C231.47,426.306,227.873,424.255,224.328,424.255Z" transform="translate(-169.677 -327.393)" fill="#3f3d56"/>
    <path id="Path_15" data-name="Path 15" d="M255.5,592.16a.308.308,0,0,1-.233-.106l-15.526-17.9a.309.309,0,0,1,.467-.4l15.526,17.9a.309.309,0,0,1-.233.511Z" transform="translate(-200.847 -437.086)" fill="#ccc"/>
    <path id="Path_16" data-name="Path 16" d="M297.835,655.439a.309.309,0,0,1-.218-.527l8.822-8.822a.309.309,0,0,1,.437.437l-8.822,8.822a.308.308,0,0,1-.218.09Z" transform="translate(-243.185 -490.032)" fill="#ccc"/>
    <path id="Path_17" data-name="Path 17" d="M353.355,231.4l.2.392a1.186,1.186,0,0,1,.134.547v10.6h9.391v-10.6a1.187,1.187,0,0,1,.134-.547l.2-.392Zm9.187.939V242.4h-8.318V232.34a1.684,1.684,0,0,0-.048-.4h8.414a1.685,1.685,0,0,0-.048.4Zm2.619-.939.2.392a1.187,1.187,0,0,1,.134.547v10.6h9.391v-10.6a1.187,1.187,0,0,1,.134-.547l.2-.392Zm9.187.939V242.4H366.03V232.34a1.687,1.687,0,0,0-.048-.4H374.4a1.684,1.684,0,0,0-.048.4Zm2.619-.939.2.392a1.187,1.187,0,0,1,.134.547v10.6h9.391v-10.6a1.187,1.187,0,0,1,.134-.547l.2-.392Zm9.187.939V242.4h-8.318V232.34a1.683,1.683,0,0,0-.048-.4H386.2a1.685,1.685,0,0,0-.048.4Zm2.619-.939.2.392a1.187,1.187,0,0,1,.134.547v10.6H398.5v-10.6a1.187,1.187,0,0,1,.134-.547l.2-.392Zm9.187.939V242.4h-8.318V232.34a1.686,1.686,0,0,0-.048-.4h8.415a1.682,1.682,0,0,0-.048.4Zm2.619-.939.2.392a1.187,1.187,0,0,1,.134.547v10.6H410.3v-10.6a1.187,1.187,0,0,1,.134-.547l.2-.392Zm9.187.939V242.4h-8.318V232.34a1.684,1.684,0,0,0-.048-.4h8.414a1.685,1.685,0,0,0-.048.4Zm2.619-.939.2.392a1.187,1.187,0,0,1,.134.547v10.6h9.391v-10.6a1.186,1.186,0,0,1,.134-.547l.2-.392Zm9.187.939V242.4h-8.318V232.34a1.683,1.683,0,0,0-.048-.4h8.414a1.685,1.685,0,0,0-.048.4Zm2.619-.939.2.392a1.187,1.187,0,0,1,.134.547v10.6h9.391v-10.6a1.187,1.187,0,0,1,.134-.547l.2-.392Zm9.187.939V242.4H425.06V232.34a1.689,1.689,0,0,0-.048-.4h8.414a1.682,1.682,0,0,0-.048.4ZM436,231.4l.2.392a1.187,1.187,0,0,1,.134.547v10.6h9.391v-10.6a1.187,1.187,0,0,1,.134-.547l.2-.392Zm9.187.939V242.4h-8.318V232.34a1.686,1.686,0,0,0-.048-.4h8.414a1.685,1.685,0,0,0-.048.4Zm2.619-.939.2.392a1.187,1.187,0,0,1,.134.547v10.6h9.391v-10.6a1.187,1.187,0,0,1,.134-.547l.2-.392Zm9.187.939V242.4h-8.318V232.34a1.684,1.684,0,0,0-.048-.4h8.414a1.685,1.685,0,0,0-.048.4ZM447.8,231.4l.2.392a1.187,1.187,0,0,1,.134.547v10.6h9.391v-10.6a1.187,1.187,0,0,1,.134-.547l.2-.392Zm9.187.939V242.4h-8.318V232.34a1.684,1.684,0,0,0-.048-.4h8.414a1.685,1.685,0,0,0-.048.4ZM436,231.4l.2.392a1.187,1.187,0,0,1,.134.547v10.6h9.391v-10.6a1.187,1.187,0,0,1,.134-.547l.2-.392Zm9.187.939V242.4h-8.318V232.34a1.686,1.686,0,0,0-.048-.4h8.414a1.685,1.685,0,0,0-.048.4ZM424.19,231.4l.2.392a1.187,1.187,0,0,1,.134.547v10.6h9.391v-10.6a1.186,1.186,0,0,1,.134-.547l.2-.392Zm9.187.939V242.4H425.06V232.34a1.683,1.683,0,0,0-.048-.4h8.414a1.685,1.685,0,0,0-.048.4Zm-20.993-.939.2.392a1.187,1.187,0,0,1,.134.547v10.6h9.391v-10.6a1.187,1.187,0,0,1,.134-.547l.2-.392Zm9.187.939V242.4h-8.318V232.34a1.681,1.681,0,0,0-.048-.4h8.415a1.684,1.684,0,0,0-.048.4Zm-20.993-.939.2.392a1.187,1.187,0,0,1,.134.547v10.6H410.3v-10.6a1.187,1.187,0,0,1,.134-.547l.2-.392Zm9.187.939V242.4h-8.318V232.34a1.687,1.687,0,0,0-.048-.4h8.414a1.684,1.684,0,0,0-.048.4Zm-20.993-.939.2.392a1.187,1.187,0,0,1,.134.547v10.6H398.5v-10.6a1.187,1.187,0,0,1,.134-.547l.2-.392Zm9.187.939V242.4h-8.318V232.34a1.681,1.681,0,0,0-.048-.4h8.414a1.685,1.685,0,0,0-.048.4Zm-20.993-.939.2.392a1.187,1.187,0,0,1,.134.547v10.6h9.391v-10.6a1.187,1.187,0,0,1,.134-.547l.2-.392Zm9.187.939V242.4h-8.318V232.34a1.687,1.687,0,0,0-.048-.4H386.2a1.684,1.684,0,0,0-.048.4Zm-20.993-.939.2.392a1.187,1.187,0,0,1,.134.547v10.6h9.391v-10.6a1.187,1.187,0,0,1,.134-.547l.2-.392Zm9.187.939V242.4H366.03V232.34a1.683,1.683,0,0,0-.048-.4H374.4a1.684,1.684,0,0,0-.048.4Zm-20.993-.939.2.392a1.188,1.188,0,0,1,.134.547v10.6h9.391v-10.6a1.187,1.187,0,0,1,.134-.547l.2-.392Zm9.187.939V242.4h-8.318V232.34a1.687,1.687,0,0,0-.048-.4h8.414a1.684,1.684,0,0,0-.048.4Zm85.26-.939.2.392a1.187,1.187,0,0,1,.134.547v10.6h9.391v-10.6a1.187,1.187,0,0,1,.134-.547l.2-.392Zm9.187.939V242.4h-8.318V232.34a1.687,1.687,0,0,0-.048-.4h8.414a1.684,1.684,0,0,0-.048.4ZM436,231.4l.2.392a1.188,1.188,0,0,1,.134.547v10.6h9.391v-10.6a1.187,1.187,0,0,1,.134-.547l.2-.392Zm9.187.939V242.4h-8.318V232.34a1.683,1.683,0,0,0-.048-.4h8.414a1.687,1.687,0,0,0-.048.4ZM424.19,231.4l.2.392a1.187,1.187,0,0,1,.134.547v10.6h9.391v-10.6a1.186,1.186,0,0,1,.134-.547l.2-.392Zm9.187.939V242.4H425.06V232.34a1.684,1.684,0,0,0-.048-.4h8.414a1.685,1.685,0,0,0-.048.4Zm-20.993-.939.2.392a1.187,1.187,0,0,1,.134.547v10.6h9.391v-10.6a1.186,1.186,0,0,1,.134-.547l.2-.392Zm9.187.939V242.4h-8.318V232.34a1.683,1.683,0,0,0-.048-.4h8.414a1.685,1.685,0,0,0-.048.4Zm-20.993-.939.2.392a1.187,1.187,0,0,1,.134.547v10.6H410.3v-10.6a1.187,1.187,0,0,1,.134-.547l.2-.392Zm9.187.939V242.4h-8.318V232.34a1.684,1.684,0,0,0-.048-.4h8.415a1.682,1.682,0,0,0-.048.4Zm-20.993-.939.2.392a1.187,1.187,0,0,1,.134.547v10.6H398.5v-10.6a1.187,1.187,0,0,1,.134-.547l.2-.392Zm9.187.939V242.4h-8.318V232.34a1.684,1.684,0,0,0-.048-.4h8.414a1.685,1.685,0,0,0-.048.4Zm-20.993-.939.2.392a1.187,1.187,0,0,1,.134.547v10.6h9.391v-10.6a1.187,1.187,0,0,1,.134-.547l.2-.392Zm9.187.939V242.4h-8.318V232.34a1.684,1.684,0,0,0-.048-.4H386.2a1.687,1.687,0,0,0-.048.4Zm-20.993-.939.2.392a1.187,1.187,0,0,1,.134.547v10.6h9.391v-10.6a1.187,1.187,0,0,1,.134-.547l.2-.392Zm9.187.939V242.4H366.03V232.34a1.684,1.684,0,0,0-.048-.4H374.4a1.684,1.684,0,0,0-.048.4Zm-20.993-.939.2.392a1.186,1.186,0,0,1,.134.547v10.6h9.391v-10.6a1.187,1.187,0,0,1,.134-.547l.2-.392Zm9.187.939V242.4h-8.318V232.34a1.686,1.686,0,0,0-.048-.4h8.414a1.684,1.684,0,0,0-.048.4Zm85.26-.939.2.392a1.186,1.186,0,0,1,.134.547v10.6h9.391v-10.6a1.187,1.187,0,0,1,.134-.547l.2-.392Zm9.187.939V242.4h-8.318V232.34a1.684,1.684,0,0,0-.048-.4h8.415a1.684,1.684,0,0,0-.048.4ZM436,231.4l.2.392a1.187,1.187,0,0,1,.134.547v10.6h9.391v-10.6a1.187,1.187,0,0,1,.134-.547l.2-.392Zm9.187.939V242.4h-8.318V232.34a1.684,1.684,0,0,0-.048-.4h8.414a1.685,1.685,0,0,0-.048.4ZM424.19,231.4l.2.392a1.188,1.188,0,0,1,.134.547v10.6h9.391v-10.6a1.187,1.187,0,0,1,.134-.547l.2-.392Zm9.187.939V242.4H425.06V232.34a1.684,1.684,0,0,0-.048-.4h8.415a1.682,1.682,0,0,0-.048.4Zm-20.993-.939.2.392a1.187,1.187,0,0,1,.134.547v10.6h9.391v-10.6a1.187,1.187,0,0,1,.134-.547l.2-.392Zm9.187.939V242.4h-8.318V232.34a1.684,1.684,0,0,0-.048-.4h8.414a1.685,1.685,0,0,0-.048.4Zm-20.993-.939.2.392a1.187,1.187,0,0,1,.134.547v10.6H410.3v-10.6a1.187,1.187,0,0,1,.134-.547l.2-.392Zm9.187.939V242.4h-8.318V232.34a1.684,1.684,0,0,0-.048-.4h8.414a1.687,1.687,0,0,0-.048.4Zm-20.993-.939.2.392a1.187,1.187,0,0,1,.134.547v10.6H398.5v-10.6a1.187,1.187,0,0,1,.134-.547l.2-.392Zm9.187.939V242.4h-8.318V232.34a1.684,1.684,0,0,0-.048-.4h8.414a1.684,1.684,0,0,0-.048.4Zm-20.993-.939.2.392a1.186,1.186,0,0,1,.134.547v10.6h9.391v-10.6a1.187,1.187,0,0,1,.134-.547l.2-.392Zm9.187.939V242.4h-8.318V232.34a1.683,1.683,0,0,0-.048-.4H386.2a1.684,1.684,0,0,0-.048.4Zm-20.993-.939.2.392a1.187,1.187,0,0,1,.134.547v10.6h9.391v-10.6a1.187,1.187,0,0,1,.134-.547l.2-.392Zm9.187.939V242.4H366.03V232.34a1.687,1.687,0,0,0-.048-.4H374.4a1.684,1.684,0,0,0-.048.4Zm-20.993-.939.2.392a1.187,1.187,0,0,1,.134.547v10.6h9.391v-10.6a1.187,1.187,0,0,1,.134-.547l.2-.392Zm9.187.939V242.4h-8.318V232.34a1.681,1.681,0,0,0-.048-.4h8.414a1.685,1.685,0,0,0-.048.4Zm85.26-.939.2.392a1.187,1.187,0,0,1,.134.547v10.6h9.391v-10.6a1.187,1.187,0,0,1,.134-.547l.2-.392Zm9.187.939V242.4h-8.318V232.34a1.686,1.686,0,0,0-.048-.4h8.414a1.687,1.687,0,0,0-.048.4ZM436,231.4l.2.392a1.187,1.187,0,0,1,.134.547v10.6h9.391v-10.6a1.187,1.187,0,0,1,.134-.547l.2-.392Zm9.187.939V242.4h-8.318V232.34a1.687,1.687,0,0,0-.048-.4h8.414a1.684,1.684,0,0,0-.048.4Zm-20.993-.939.2.392a1.187,1.187,0,0,1,.134.547v10.6h9.391v-10.6a1.187,1.187,0,0,1,.134-.547l.2-.392Zm9.187.939V242.4H425.06V232.34a1.684,1.684,0,0,0-.048-.4h8.414a1.684,1.684,0,0,0-.048.4Zm-20.993-.939.2.392a1.187,1.187,0,0,1,.134.547v10.6h9.391v-10.6a1.187,1.187,0,0,1,.134-.547l.2-.392Zm9.187.939V242.4h-8.318V232.34a1.686,1.686,0,0,0-.048-.4h8.415a1.684,1.684,0,0,0-.048.4Zm-20.993-.939.2.392a1.187,1.187,0,0,1,.134.547v10.6H410.3v-10.6a1.187,1.187,0,0,1,.134-.547l.2-.392Zm9.187.939V242.4h-8.318V232.34a1.681,1.681,0,0,0-.048-.4h8.414a1.685,1.685,0,0,0-.048.4Zm-20.993-.939.2.392a1.187,1.187,0,0,1,.134.547v10.6H398.5v-10.6a1.187,1.187,0,0,1,.134-.547l.2-.392Zm9.187.939V242.4h-8.318V232.34a1.687,1.687,0,0,0-.048-.4h8.414a1.682,1.682,0,0,0-.048.4Zm-20.993-.939.2.392a1.187,1.187,0,0,1,.134.547v10.6h9.391v-10.6a1.188,1.188,0,0,1,.134-.547l.2-.392Zm9.187.939V242.4h-8.318V232.34a1.681,1.681,0,0,0-.048-.4H386.2a1.687,1.687,0,0,0-.048.4Zm-20.993-.939.2.392a1.186,1.186,0,0,1,.134.547v10.6h9.391v-10.6a1.187,1.187,0,0,1,.134-.547l.2-.392Zm9.187.939V242.4H366.03V232.34a1.687,1.687,0,0,0-.048-.4H374.4a1.682,1.682,0,0,0-.048.4Zm-20.993-.939.2.392a1.187,1.187,0,0,1,.134.547v10.6h9.391v-10.6a1.187,1.187,0,0,1,.134-.547l.2-.392Zm9.187.939V242.4h-8.318V232.34a1.684,1.684,0,0,0-.048-.4h8.414a1.687,1.687,0,0,0-.048.4Zm85.26-.939.2.392a1.187,1.187,0,0,1,.134.547v10.6h9.391v-10.6a1.187,1.187,0,0,1,.134-.547l.2-.392Zm9.187.939V242.4h-8.318V232.34a1.684,1.684,0,0,0-.048-.4h8.414a1.686,1.686,0,0,0-.048.4Zm-20.795-.547a1.186,1.186,0,0,1,.134.547v10.6h9.391v-10.6a1.187,1.187,0,0,1,.134-.547l.2-.392H436Zm9.037.145a1.686,1.686,0,0,0-.048.4V242.4h-8.318V232.34a1.687,1.687,0,0,0-.048-.4Zm-20.843-.145a1.187,1.187,0,0,1,.134.547v10.6h9.391v-10.6a1.186,1.186,0,0,1,.134-.547l.2-.392H424.19Zm9.037.145a1.684,1.684,0,0,0-.048.4V242.4H425.06V232.34a1.686,1.686,0,0,0-.048-.4Zm-20.843-.145a1.187,1.187,0,0,1,.134.547v10.6h9.391v-10.6a1.187,1.187,0,0,1,.134-.547l.2-.392H412.385Zm9.037.145a1.685,1.685,0,0,0-.048.4V242.4h-8.318V232.34a1.684,1.684,0,0,0-.048-.4Zm-20.843-.145a1.187,1.187,0,0,1,.134.547v10.6H410.3v-10.6a1.186,1.186,0,0,1,.134-.547l.2-.392H400.579Zm9.037.145a1.684,1.684,0,0,0-.048.4V242.4h-8.318V232.34a1.684,1.684,0,0,0-.048-.4Zm-20.843-.145a1.187,1.187,0,0,1,.134.547v10.6H398.5v-10.6a1.187,1.187,0,0,1,.134-.547l.2-.392H388.773Zm9.037.145a1.684,1.684,0,0,0-.048.4V242.4h-8.318V232.34a1.684,1.684,0,0,0-.048-.4Zm-20.843-.145a1.187,1.187,0,0,1,.134.547v10.6h9.391v-10.6a1.187,1.187,0,0,1,.134-.547l.2-.392H376.967Zm9.037.145a1.685,1.685,0,0,0-.048.4V242.4h-8.318V232.34a1.684,1.684,0,0,0-.048-.4Zm-20.843-.145a1.187,1.187,0,0,1,.134.547v10.6h9.391v-10.6a1.186,1.186,0,0,1,.134-.547l.2-.392H365.161Zm9.037.145a1.684,1.684,0,0,0-.048.4V242.4H366.03V232.34a1.684,1.684,0,0,0-.048-.4Zm-20.843-.145a1.187,1.187,0,0,1,.134.547v10.6h9.391v-10.6a1.187,1.187,0,0,1,.134-.547l.2-.392H353.355Zm9.037.145a1.687,1.687,0,0,0-.048.4V242.4h-8.318V232.34a1.686,1.686,0,0,0-.048-.4ZM448,231.793a1.187,1.187,0,0,1,.134.547v10.6h9.391v-10.6a1.187,1.187,0,0,1,.134-.547l.2-.392H447.8Zm9.037.145a1.687,1.687,0,0,0-.048.4V242.4h-8.318V232.34a1.684,1.684,0,0,0-.048-.4Zm-20.843-.145a1.187,1.187,0,0,1,.134.547v10.6h9.391v-10.6a1.187,1.187,0,0,1,.134-.547l.2-.392H436Zm9.037.145a1.684,1.684,0,0,0-.048.4V242.4h-8.318V232.34a1.681,1.681,0,0,0-.048-.4Zm-20.843-.145a1.187,1.187,0,0,1,.134.547v10.6h9.391v-10.6a1.187,1.187,0,0,1,.134-.547l.2-.392H424.19Zm9.037.145a1.687,1.687,0,0,0-.048.4V242.4H425.06V232.34a1.687,1.687,0,0,0-.048-.4Zm-20.843-.145a1.187,1.187,0,0,1,.134.547v10.6h9.391v-10.6a1.186,1.186,0,0,1,.134-.547l.2-.392H412.385Zm9.037.145a1.684,1.684,0,0,0-.048.4V242.4h-8.318V232.34a1.683,1.683,0,0,0-.048-.4Zm-20.843-.145a1.187,1.187,0,0,1,.134.547v10.6H410.3v-10.6a1.187,1.187,0,0,1,.134-.547l.2-.392H400.579Zm9.037.145a1.687,1.687,0,0,0-.048.4V242.4h-8.318V232.34a1.686,1.686,0,0,0-.048-.4Zm-20.843-.145a1.187,1.187,0,0,1,.134.547v10.6H398.5v-10.6a1.187,1.187,0,0,1,.134-.547l.2-.392H388.773Zm9.037.145a1.681,1.681,0,0,0-.048.4V242.4h-8.318V232.34a1.683,1.683,0,0,0-.048-.4Zm-20.843-.145a1.187,1.187,0,0,1,.134.547v10.6h9.391v-10.6a1.187,1.187,0,0,1,.134-.547l.2-.392H376.967Zm9.037.145a1.686,1.686,0,0,0-.048.4V242.4h-8.318V232.34a1.687,1.687,0,0,0-.048-.4Zm-20.843-.145a1.187,1.187,0,0,1,.134.547v10.6h9.391v-10.6a1.187,1.187,0,0,1,.134-.547l.2-.392H365.161Zm9.037.145a1.682,1.682,0,0,0-.048.4V242.4H366.03V232.34a1.681,1.681,0,0,0-.048-.4Zm-20.843-.145a1.187,1.187,0,0,1,.134.547v10.6h9.391v-10.6a1.187,1.187,0,0,1,.134-.547l.2-.392H353.355Zm9.037.145a1.684,1.684,0,0,0-.048.4V242.4h-8.318V232.34a1.686,1.686,0,0,0-.048-.4Zm105.669,12.611h-3.2a2.96,2.96,0,0,0-2.839-2.147h-1.744V232.34a1.677,1.677,0,0,0-.121-.631,1.607,1.607,0,0,0-.818-2.992H351.675a1.607,1.607,0,0,0-.818,2.992,1.677,1.677,0,0,0-.121.631V242.4h-1.744a2.96,2.96,0,0,0-2.839,2.147h-3.467a2.418,2.418,0,0,0-2.415,2.415V388.635a2.42,2.42,0,0,0,2.415,2.415H468.259a2.418,2.418,0,0,0,2.415-2.415V246.964A2.419,2.419,0,0,0,468.259,244.549Zm1.878,144.086a1.879,1.879,0,0,1-1.226,1.76,1.8,1.8,0,0,1-.652.118H342.687a1.8,1.8,0,0,1-.652-.118,1.88,1.88,0,0,1-1.226-1.76V246.964a1.88,1.88,0,0,1,1.878-1.878h3.9l.043-.215a2.423,2.423,0,0,1,2.366-1.932h2.281v-10.6a1.206,1.206,0,0,1,.172-.62l.166-.276-.3-.113a1.07,1.07,0,0,1,.368-2.077H459.539a1.07,1.07,0,0,1,.368,2.077l-.3.113.166.276a1.2,1.2,0,0,1,.172.62v10.6h2.281a2.423,2.423,0,0,1,2.367,1.932l.043.215h3.628a1.88,1.88,0,0,1,1.878,1.878ZM353.355,231.4l.2.392a1.187,1.187,0,0,1,.134.547v10.6h9.391v-10.6a1.187,1.187,0,0,1,.134-.547l.2-.392Zm9.187.939V242.4h-8.318V232.34a1.684,1.684,0,0,0-.048-.4h8.414a1.686,1.686,0,0,0-.048.4Zm2.619-.939.2.392a1.187,1.187,0,0,1,.134.547v10.6h9.391v-10.6a1.186,1.186,0,0,1,.134-.547l.2-.392Zm9.187.939V242.4H366.03V232.34a1.687,1.687,0,0,0-.048-.4H374.4A1.682,1.682,0,0,0,374.348,232.34Zm2.619-.939.2.392a1.186,1.186,0,0,1,.134.547v10.6h9.391v-10.6a1.187,1.187,0,0,1,.134-.547l.2-.392Zm9.187.939V242.4h-8.318V232.34a1.681,1.681,0,0,0-.048-.4H386.2a1.687,1.687,0,0,0-.048.4Zm2.619-.939.2.392a1.187,1.187,0,0,1,.134.547v10.6H398.5v-10.6a1.187,1.187,0,0,1,.134-.547l.2-.392Zm9.187.939V242.4h-8.318V232.34a1.684,1.684,0,0,0-.048-.4h8.414A1.684,1.684,0,0,0,397.96,232.34Zm2.619-.939.2.392a1.187,1.187,0,0,1,.134.547v10.6H410.3v-10.6a1.187,1.187,0,0,1,.134-.547l.2-.392Zm9.187.939V242.4h-8.318V232.34a1.687,1.687,0,0,0-.048-.4h8.414A1.682,1.682,0,0,0,409.766,232.34Zm2.619-.939.2.392a1.186,1.186,0,0,1,.134.547v10.6h9.391v-10.6a1.187,1.187,0,0,1,.134-.547l.2-.392Zm9.187.939V242.4h-8.318V232.34a1.681,1.681,0,0,0-.048-.4h8.415a1.682,1.682,0,0,0-.048.4Zm2.619-.939.2.392a1.188,1.188,0,0,1,.134.547v10.6h9.391v-10.6a1.187,1.187,0,0,1,.134-.547l.2-.392Zm9.187.939V242.4H425.06V232.34a1.683,1.683,0,0,0-.048-.4h8.414a1.685,1.685,0,0,0-.048.4ZM436,231.4l.2.392a1.187,1.187,0,0,1,.134.547v10.6h9.391v-10.6a1.188,1.188,0,0,1,.134-.547l.2-.392Zm9.187.939V242.4h-8.318V232.34a1.687,1.687,0,0,0-.048-.4h8.414a1.682,1.682,0,0,0-.048.4Zm2.619-.939.2.392a1.186,1.186,0,0,1,.134.547v10.6h9.391v-10.6a1.186,1.186,0,0,1,.134-.547l.2-.392Zm9.187.939V242.4h-8.318V232.34a1.684,1.684,0,0,0-.048-.4h8.414a1.686,1.686,0,0,0-.048.4ZM353.355,231.4l.2.392a1.187,1.187,0,0,1,.134.547v10.6h9.391v-10.6a1.187,1.187,0,0,1,.134-.547l.2-.392Zm9.187.939V242.4h-8.318V232.34a1.686,1.686,0,0,0-.048-.4h8.414A1.684,1.684,0,0,0,362.542,232.34Zm2.619-.939.2.392a1.187,1.187,0,0,1,.134.547v10.6h9.391v-10.6a1.187,1.187,0,0,1,.134-.547l.2-.392Zm9.187.939V242.4H366.03V232.34a1.686,1.686,0,0,0-.048-.4H374.4a1.684,1.684,0,0,0-.048.4Zm2.619-.939.2.392a1.187,1.187,0,0,1,.134.547v10.6h9.391v-10.6a1.187,1.187,0,0,1,.134-.547l.2-.392Zm9.187.939V242.4h-8.318V232.34a1.684,1.684,0,0,0-.048-.4H386.2a1.685,1.685,0,0,0-.048.4Zm2.619-.939.2.392a1.187,1.187,0,0,1,.134.547v10.6H398.5v-10.6a1.187,1.187,0,0,1,.134-.547l.2-.392Zm9.187.939V242.4h-8.318V232.34a1.686,1.686,0,0,0-.048-.4h8.414a1.684,1.684,0,0,0-.048.4Zm2.619-.939.2.392a1.187,1.187,0,0,1,.134.547v10.6H410.3v-10.6a1.187,1.187,0,0,1,.134-.547l.2-.392Zm9.187.939V242.4h-8.318V232.34a1.683,1.683,0,0,0-.048-.4h8.414a1.684,1.684,0,0,0-.048.4Zm2.619-.939.2.392a1.187,1.187,0,0,1,.134.547v10.6h9.391v-10.6a1.187,1.187,0,0,1,.134-.547l.2-.392Zm9.187.939V242.4h-8.318V232.34a1.683,1.683,0,0,0-.048-.4h8.415a1.682,1.682,0,0,0-.048.4Zm2.619-.939.2.392a1.187,1.187,0,0,1,.134.547v10.6h9.391v-10.6a1.187,1.187,0,0,1,.134-.547l.2-.392Zm9.187.939V242.4H425.06V232.34a1.686,1.686,0,0,0-.048-.4h8.414a1.682,1.682,0,0,0-.048.4ZM436,231.4l.2.392a1.187,1.187,0,0,1,.134.547v10.6h9.391v-10.6a1.187,1.187,0,0,1,.134-.547l.2-.392Zm9.187.939V242.4h-8.318V232.34a1.684,1.684,0,0,0-.048-.4h8.414a1.682,1.682,0,0,0-.048.4Zm2.619-.939.2.392a1.187,1.187,0,0,1,.134.547v10.6h9.391v-10.6a1.187,1.187,0,0,1,.134-.547l.2-.392Zm9.187.939V242.4h-8.318V232.34a1.684,1.684,0,0,0-.048-.4h8.414a1.686,1.686,0,0,0-.048.4ZM353.355,231.4l.2.392a1.187,1.187,0,0,1,.134.547v10.6h9.391v-10.6a1.187,1.187,0,0,1,.134-.547l.2-.392Zm9.187.939V242.4h-8.318V232.34a1.686,1.686,0,0,0-.048-.4h8.414a1.686,1.686,0,0,0-.048.4Zm2.619-.939.2.392a1.187,1.187,0,0,1,.134.547v10.6h9.391v-10.6a1.187,1.187,0,0,1,.134-.547l.2-.392Zm9.187.939V242.4H366.03V232.34a1.681,1.681,0,0,0-.048-.4H374.4a1.684,1.684,0,0,0-.048.4Zm2.619-.939.2.392a1.187,1.187,0,0,1,.134.547v10.6h9.391v-10.6a1.187,1.187,0,0,1,.134-.547l.2-.392Zm9.187.939V242.4h-8.318V232.34a1.687,1.687,0,0,0-.048-.4H386.2a1.684,1.684,0,0,0-.048.4Zm2.619-.939.2.392a1.187,1.187,0,0,1,.134.547v10.6H398.5v-10.6a1.187,1.187,0,0,1,.134-.547l.2-.392Zm9.187.939V242.4h-8.318V232.34a1.684,1.684,0,0,0-.048-.4h8.414a1.684,1.684,0,0,0-.048.4Zm2.619-.939.2.392a1.187,1.187,0,0,1,.134.547v10.6H410.3v-10.6a1.187,1.187,0,0,1,.134-.547l.2-.392Zm9.187.939V242.4h-8.318V232.34a1.684,1.684,0,0,0-.048-.4h8.414a1.682,1.682,0,0,0-.048.4Zm2.619-.939.2.392a1.186,1.186,0,0,1,.134.547v10.6h9.391v-10.6a1.187,1.187,0,0,1,.134-.547l.2-.392Zm9.187.939V242.4h-8.318V232.34a1.684,1.684,0,0,0-.048-.4h8.414a1.684,1.684,0,0,0-.048.4Zm2.619-.939.2.392a1.187,1.187,0,0,1,.134.547v10.6h9.391v-10.6a1.186,1.186,0,0,1,.134-.547l.2-.392Zm9.187.939V242.4H425.06V232.34a1.684,1.684,0,0,0-.048-.4h8.414a1.681,1.681,0,0,0-.048.4ZM436,231.4l.2.392a1.187,1.187,0,0,1,.134.547v10.6h9.391v-10.6a1.187,1.187,0,0,1,.134-.547l.2-.392Zm9.187.939V242.4h-8.318V232.34a1.684,1.684,0,0,0-.048-.4h8.414a1.684,1.684,0,0,0-.048.4Zm2.619-.939.2.392a1.187,1.187,0,0,1,.134.547v10.6h9.391v-10.6a1.187,1.187,0,0,1,.134-.547l.2-.392Zm9.187.939V242.4h-8.318V232.34a1.686,1.686,0,0,0-.048-.4h8.414a1.687,1.687,0,0,0-.048.4ZM353.355,231.4l.2.392a1.187,1.187,0,0,1,.134.547v10.6h9.391v-10.6a1.187,1.187,0,0,1,.134-.547l.2-.392Zm9.187.939V242.4h-8.318V232.34a1.683,1.683,0,0,0-.048-.4h8.414a1.684,1.684,0,0,0-.048.4Zm2.619-.939.2.392a1.187,1.187,0,0,1,.134.547v10.6h9.391v-10.6a1.187,1.187,0,0,1,.134-.547l.2-.392Zm9.187.939V242.4H366.03V232.34a1.684,1.684,0,0,0-.048-.4H374.4a1.686,1.686,0,0,0-.048.4Zm2.619-.939.2.392a1.187,1.187,0,0,1,.134.547v10.6h9.391v-10.6a1.187,1.187,0,0,1,.134-.547l.2-.392Zm9.187.939V242.4h-8.318V232.34a1.686,1.686,0,0,0-.048-.4H386.2a1.684,1.684,0,0,0-.048.4Zm2.619-.939.2.392a1.187,1.187,0,0,1,.134.547v10.6H398.5v-10.6a1.187,1.187,0,0,1,.134-.547l.2-.392Zm9.187.939V242.4h-8.318V232.34a1.683,1.683,0,0,0-.048-.4h8.414a1.687,1.687,0,0,0-.048.4Zm2.619-.939.2.392a1.186,1.186,0,0,1,.134.547v10.6H410.3v-10.6a1.187,1.187,0,0,1,.134-.547l.2-.392Zm9.187.939V242.4h-8.318V232.34a1.684,1.684,0,0,0-.048-.4h8.414a1.685,1.685,0,0,0-.048.4Zm2.619-.939.2.392a1.187,1.187,0,0,1,.134.547v10.6h9.391v-10.6a1.187,1.187,0,0,1,.134-.547l.2-.392Zm9.187.939V242.4h-8.318V232.34a1.686,1.686,0,0,0-.048-.4h8.415a1.684,1.684,0,0,0-.048.4Zm2.619-.939.2.392a1.187,1.187,0,0,1,.134.547v10.6h9.391v-10.6a1.187,1.187,0,0,1,.134-.547l.2-.392Zm9.187.939V242.4H425.06V232.34a1.684,1.684,0,0,0-.048-.4h8.414a1.684,1.684,0,0,0-.048.4ZM436,231.4l.2.392a1.187,1.187,0,0,1,.134.547v10.6h9.391v-10.6a1.187,1.187,0,0,1,.134-.547l.2-.392Zm9.187.939V242.4h-8.318V232.34a1.681,1.681,0,0,0-.048-.4h8.414a1.687,1.687,0,0,0-.048.4Zm2.619-.939.2.392a1.186,1.186,0,0,1,.134.547v10.6h9.391v-10.6a1.187,1.187,0,0,1,.134-.547l.2-.392Zm9.187.939V242.4h-8.318V232.34a1.684,1.684,0,0,0-.048-.4h8.415a1.684,1.684,0,0,0-.048.4Z" transform="translate(-274.461 -184.714)" fill="#3f3d56"/>
    <path id="Path_18" data-name="Path 18" d="M449.681,376.4H429.895a1.574,1.574,0,0,1-1.572-1.572V364.29a1.574,1.574,0,0,1,1.572-1.572h19.787a1.574,1.574,0,0,1,1.572,1.572v10.54A1.574,1.574,0,0,1,449.681,376.4Z" transform="translate(-338.887 -282.76)" fill="#fab708"/>
    <path id="Path_19" data-name="Path 19" d="M561.9,376.4H542.114a1.574,1.574,0,0,1-1.572-1.572V364.29a1.574,1.574,0,0,1,1.572-1.572H561.9a1.574,1.574,0,0,1,1.572,1.572v10.54A1.574,1.574,0,0,1,561.9,376.4Z" transform="translate(-420.995 -282.76)" fill="#fab708"/>
    <path id="Path_20" data-name="Path 20" d="M674.12,376.4H654.334a1.574,1.574,0,0,1-1.572-1.572V364.29a1.574,1.574,0,0,1,1.572-1.572H674.12a1.574,1.574,0,0,1,1.572,1.572v10.54a1.574,1.574,0,0,1-1.572,1.572Z" transform="translate(-503.105 -282.76)" fill="#fab708"/>
    <path id="Path_21" data-name="Path 21" d="M449.681,507.4H429.895a1.574,1.574,0,0,1-1.572-1.572V495.29a1.574,1.574,0,0,1,1.572-1.572h19.787a1.574,1.574,0,0,1,1.572,1.572V505.83A1.574,1.574,0,0,1,449.681,507.4Z" transform="translate(-338.887 -378.61)" fill="#fab708"/>
    <path id="Path_22" data-name="Path 22" d="M561.9,507.4H542.114a1.574,1.574,0,0,1-1.572-1.572V495.29a1.574,1.574,0,0,1,1.572-1.572H561.9a1.574,1.574,0,0,1,1.572,1.572v10.54A1.574,1.574,0,0,1,561.9,507.4Z" transform="translate(-420.995 -378.61)" fill="#fab708"/>
    <path id="Path_23" data-name="Path 23" d="M674.12,507.4H654.334a1.573,1.573,0,0,1-1.572-1.572V495.29a1.574,1.574,0,0,1,1.572-1.572H674.12a1.574,1.574,0,0,1,1.572,1.572V505.83a1.574,1.574,0,0,1-1.572,1.572Z" transform="translate(-503.105 -378.61)" fill="#fab708"/>
    <path id="Path_24" data-name="Path 24" d="M449.681,638.4H429.895a1.574,1.574,0,0,1-1.572-1.572V626.29a1.574,1.574,0,0,1,1.572-1.572h19.787a1.574,1.574,0,0,1,1.572,1.572v10.54A1.574,1.574,0,0,1,449.681,638.4Z" transform="translate(-338.887 -474.461)" fill="#fab708"/>
    <path id="Path_25" data-name="Path 25" d="M561.9,638.4H542.114a1.574,1.574,0,0,1-1.572-1.572V626.29a1.574,1.574,0,0,1,1.572-1.572H561.9a1.574,1.574,0,0,1,1.572,1.572v10.54A1.574,1.574,0,0,1,561.9,638.4Z" transform="translate(-420.995 -474.461)" fill="#fab708"/>
    <path id="Path_26" data-name="Path 26" d="M674.12,638.4H654.334a1.573,1.573,0,0,1-1.572-1.572V626.29a1.574,1.574,0,0,1,1.572-1.572H674.12a1.574,1.574,0,0,1,1.572,1.572v10.54a1.574,1.574,0,0,1-1.572,1.572Z" transform="translate(-503.105 -474.461)" fill="#fab708"/>
    <path id="Path_27" data-name="Path 27" d="M427.782,374.067H404.861a2.092,2.092,0,0,1-2.089-2.089V359.767a2.092,2.092,0,0,1,2.089-2.089h22.922a2.092,2.092,0,0,1,2.089,2.089v12.21a2.092,2.092,0,0,1-2.089,2.089Zm-22.922-15.852a1.554,1.554,0,0,0-1.553,1.553v12.211a1.554,1.554,0,0,0,1.553,1.553h22.922a1.554,1.554,0,0,0,1.553-1.553V359.767a1.554,1.554,0,0,0-1.553-1.553Z" transform="translate(-320.191 -279.072)" fill="#3f3d56"/>
    <path id="Path_28" data-name="Path 28" d="M557.782,374.067H534.861a2.092,2.092,0,0,1-2.089-2.089V359.767a2.092,2.092,0,0,1,2.089-2.089h22.922a2.092,2.092,0,0,1,2.089,2.089v12.211A2.091,2.091,0,0,1,557.782,374.067Zm-22.922-15.852a1.554,1.554,0,0,0-1.553,1.553v12.211a1.554,1.554,0,0,0,1.553,1.553h22.922a1.554,1.554,0,0,0,1.553-1.553V359.767a1.554,1.554,0,0,0-1.553-1.553Z" transform="translate(-415.31 -279.072)" fill="#3f3d56"/>
    <path id="Path_29" data-name="Path 29" d="M687.782,374.067H664.861a2.092,2.092,0,0,1-2.089-2.089V359.767a2.092,2.092,0,0,1,2.089-2.089h22.922a2.092,2.092,0,0,1,2.089,2.089v12.211A2.092,2.092,0,0,1,687.782,374.067Zm-22.922-15.852a1.554,1.554,0,0,0-1.553,1.553v12.211a1.554,1.554,0,0,0,1.553,1.553h22.922a1.554,1.554,0,0,0,1.553-1.553V359.767a1.554,1.554,0,0,0-1.553-1.553Z" transform="translate(-510.429 -279.072)" fill="#3f3d56"/>
    <path id="Path_30" data-name="Path 30" d="M427.782,505.067H404.861a2.092,2.092,0,0,1-2.089-2.089V490.767a2.092,2.092,0,0,1,2.089-2.089h22.922a2.092,2.092,0,0,1,2.089,2.089v12.211a2.092,2.092,0,0,1-2.089,2.089Zm-22.922-15.852a1.554,1.554,0,0,0-1.553,1.553v12.211a1.554,1.554,0,0,0,1.553,1.553h22.922a1.554,1.554,0,0,0,1.553-1.553V490.767a1.554,1.554,0,0,0-1.553-1.553Z" transform="translate(-320.191 -374.922)" fill="#3f3d56"/>
    <path id="Path_31" data-name="Path 31" d="M557.782,505.067H534.861a2.092,2.092,0,0,1-2.089-2.089V490.767a2.092,2.092,0,0,1,2.089-2.089h22.922a2.092,2.092,0,0,1,2.089,2.089v12.211A2.091,2.091,0,0,1,557.782,505.067Zm-22.922-15.852a1.554,1.554,0,0,0-1.553,1.553v12.211a1.554,1.554,0,0,0,1.553,1.553h22.922a1.554,1.554,0,0,0,1.553-1.553V490.767a1.554,1.554,0,0,0-1.553-1.553Z" transform="translate(-415.31 -374.922)" fill="#3f3d56"/>
    <path id="Path_32" data-name="Path 32" d="M687.782,505.067H664.861a2.092,2.092,0,0,1-2.089-2.089V490.767a2.092,2.092,0,0,1,2.089-2.089h22.922a2.092,2.092,0,0,1,2.089,2.089v12.211A2.092,2.092,0,0,1,687.782,505.067Zm-22.922-15.852a1.554,1.554,0,0,0-1.553,1.553v12.211a1.554,1.554,0,0,0,1.553,1.553h22.922a1.554,1.554,0,0,0,1.553-1.553V490.767a1.554,1.554,0,0,0-1.553-1.553Z" transform="translate(-510.429 -374.922)" fill="#3f3d56"/>
    <path id="Path_33" data-name="Path 33" d="M427.782,636.067H404.861a2.092,2.092,0,0,1-2.089-2.089V621.767a2.092,2.092,0,0,1,2.089-2.089h22.922a2.092,2.092,0,0,1,2.089,2.089v12.211a2.092,2.092,0,0,1-2.089,2.089Zm-22.922-15.852a1.554,1.554,0,0,0-1.553,1.553v12.211a1.554,1.554,0,0,0,1.553,1.553h22.922a1.554,1.554,0,0,0,1.553-1.553V621.767a1.554,1.554,0,0,0-1.553-1.553Z" transform="translate(-320.191 -470.773)" fill="#3f3d56"/>
    <path id="Path_34" data-name="Path 34" d="M557.782,636.067H534.861a2.092,2.092,0,0,1-2.089-2.089V621.767a2.092,2.092,0,0,1,2.089-2.089h22.922a2.092,2.092,0,0,1,2.089,2.089v12.211A2.091,2.091,0,0,1,557.782,636.067Zm-22.922-15.852a1.554,1.554,0,0,0-1.553,1.553v12.21a1.554,1.554,0,0,0,1.553,1.553h22.922a1.554,1.554,0,0,0,1.553-1.553V621.767a1.554,1.554,0,0,0-1.553-1.553Z" transform="translate(-415.31 -470.773)" fill="#3f3d56"/>
    <path id="Path_35" data-name="Path 35" d="M687.782,636.067H664.861a2.092,2.092,0,0,1-2.089-2.089V621.767a2.092,2.092,0,0,1,2.089-2.089h22.922a2.092,2.092,0,0,1,2.089,2.089v12.211A2.092,2.092,0,0,1,687.782,636.067Zm-22.922-15.852a1.554,1.554,0,0,0-1.553,1.553v12.21a1.554,1.554,0,0,0,1.553,1.553h22.922a1.554,1.554,0,0,0,1.553-1.553V621.767a1.554,1.554,0,0,0-1.553-1.553Z" transform="translate(-510.429 -470.773)" fill="#3f3d56"/>
    <path id="Path_36" data-name="Path 36" d="M365.732,833.755H95.268a.268.268,0,1,1,0-.537H365.732a.268.268,0,1,1,0,.537Z" transform="translate(-95 -627.017)" fill="#3f3d56"/>
    <path id="Path_37" data-name="Path 37" d="M596.822,732.056a2.309,2.309,0,0,0-2.281-2.337H583.272v27.771h13.55Z" transform="translate(-452.26 -551.288)" fill="#3f3d56"/>
    <path id="Path_38" data-name="Path 38" d="M545.859,756.855H531.772V731.767a2.552,2.552,0,0,1,2.549-2.549h11.538Zm-13.55-.537h13.013V729.755h-11a2.015,2.015,0,0,0-2.012,2.012Z" transform="translate(-414.579 -550.922)" fill="#3f3d56"/>
    <circle id="Ellipse_6" data-name="Ellipse 6" cx="0.805" cy="0.805" r="0.805" transform="translate(118.132 192.383)" fill="#3f3d56"/>
  </g>
</svg>
