<svg xmlns="http://www.w3.org/2000/svg" width="589" height="449.368" viewBox="0 0 589 449.368">
  <g id="Group_70" data-name="Group 70" transform="translate(0 0)">
    <circle id="Ellipse_5" data-name="Ellipse 5" cx="37.323" cy="37.323" r="37.323" transform="translate(46.812 190.696)" fill="#ffcc48"/>
    <path id="Path_1" data-name="Path 1" d="M366.767,602.133h-.038a4.963,4.963,0,0,1-4.957-4.957v-291a4.962,4.962,0,0,1,4.957-4.957H611.66a4.962,4.962,0,0,1,4.957,4.957V532.444A4.962,4.962,0,0,1,611.7,537.4Z" transform="translate(-206.199 -163.299)" fill="#f2f2f2"/>
    <path id="Path_2" data-name="Path 2" d="M599.49,179.865H485.772v-65.9a5.255,5.255,0,0,1,5.249-5.249H594.241a5.254,5.254,0,0,1,5.248,5.249ZM486.938,178.7H598.323V113.967a4.087,4.087,0,0,0-4.082-4.082H491.021a4.087,4.087,0,0,0-4.082,4.082Z" transform="translate(-257.886 -83.059)" fill="#3f3d56"/>
    <path id="Path_3" data-name="Path 3" d="M442.937,87h48.986a4.665,4.665,0,0,1,4.665,4.665v69.98H438.272V91.665A4.665,4.665,0,0,1,442.937,87Z" transform="translate(-182.686 -36.264)" fill="#e6e6e6"/>
    <path id="Path_4" data-name="Path 4" d="M540.682,91.544h-23.91V67.634a2.919,2.919,0,0,1,2.916-2.916h18.078a2.919,2.919,0,0,1,2.916,2.916Zm-22.744-1.166h21.577V67.634a1.751,1.751,0,0,0-1.75-1.75H519.688a1.751,1.751,0,0,0-1.75,1.75Z" transform="translate(-270.808 -64.718)" fill="#3f3d56"/>
    <path id="Path_5" data-name="Path 5" d="M865.333,592.744c-.232,0-.459,0-.691-.006a59.2,59.2,0,0,1-39.011-15.248q-.594-.541-1.178-1.1l-.181-.172V464.456l.056-.118c.386-.818.778-1.625,1.169-2.432,12.13-24.627,26.277-38.188,39.836-38.188,19.553,0,34.718,26.822,42.017,42.81,10.15,22.233,17.239,49.782,17.239,66.994a59.236,59.236,0,0,1-58.579,59.215C865.792,592.744,865.559,592.744,865.333,592.744Zm-39.895-17.022c.323.305.649.606.976.9a58.043,58.043,0,0,0,38.249,14.946c.236.006.46,0,.686.006s.429,0,.64-.005a58.263,58.263,0,0,0,57.434-58.049c0-17.063-7.045-44.413-17.133-66.51-7.183-15.734-22.055-42.128-40.956-42.128-13.091,0-26.866,13.33-38.788,37.534-.369.761-.74,1.525-1.106,2.3Z" transform="translate(-398.984 -214.361)" fill="#3f3d56"/>
    <path id="Path_6" data-name="Path 6" d="M894.2,735.946a.671.671,0,0,1-.671-.671V598.307a.671.671,0,1,1,1.342,0V735.276A.671.671,0,0,1,894.2,735.946Z" transform="translate(-427.851 -286.856)" fill="#ccc"/>
    <path id="Path_7" data-name="Path 7" d="M297.2,735.946a.671.671,0,0,1-.671-.671V598.307a.671.671,0,1,1,1.342,0V735.276a.671.671,0,0,1-.671.671Z" transform="translate(-179.003 -286.856)" fill="#ccc"/>
    <path id="Path_8" data-name="Path 8" d="M870.078,613.894a.669.669,0,0,1-.507-.231l-33.745-38.915a.671.671,0,0,1,1.014-.879l33.744,38.915a.671.671,0,0,1-.507,1.111Z" transform="translate(-403.732 -276.852)" fill="#ccc"/>
    <path id="Path_9" data-name="Path 9" d="M894.2,666.516a.671.671,0,0,1-.474-1.145L912.9,646.2a.671.671,0,0,1,.949.949l-19.174,19.174a.668.668,0,0,1-.474.2Z" transform="translate(-427.851 -307.015)" fill="#ccc"/>
    <path id="Path_10" data-name="Path 10" d="M965.272,816.94H915.119v-.583a25.078,25.078,0,0,1,50.156,0Zm-48.982-1.166H964.1a23.912,23.912,0,0,0-47.809,0Z" transform="translate(-436.852 -367.572)" fill="#3f3d56"/>
    <path id="Path_11" data-name="Path 11" d="M951.969,809.875a.662.662,0,0,0-.662.662v7.032l-6.851-5.88a.662.662,0,0,0-.862,1l7.714,6.62v4.132a.662.662,0,1,0,1.324,0V810.537a.662.662,0,0,0-.662-.662Z" transform="translate(-448.625 -375.323)" fill="#3f3d56"/>
    <path id="Path_12" data-name="Path 12" d="M244.274,816.94H194.119v-.583a25.078,25.078,0,1,1,50.155,0Zm-48.982-1.166H243.1a23.912,23.912,0,0,0-47.809,0Z" transform="translate(-136.316 -367.572)" fill="#3f3d56"/>
    <path id="Path_13" data-name="Path 13" d="M230.97,809.875a.662.662,0,0,0-.662.662v7.032l-6.851-5.88a.662.662,0,0,0-.863,1l7.714,6.62v4.132a.662.662,0,1,0,1.324,0V810.537a.662.662,0,0,0-.662-.662Z" transform="translate(-148.089 -375.323)" fill="#3f3d56"/>
    <path id="Path_14" data-name="Path 14" d="M256.324,592.744c-.232,0-.459,0-.691-.006a59.239,59.239,0,0,1-58.57-59.215c0-17.213,7.089-44.762,17.239-66.994,7.3-15.988,22.465-42.81,42.022-42.81,8.055,0,16.167,4.591,24.109,13.647.394.446.789.906,1.178,1.378l.133.162V587.021l-.329.159c-.392.19-.791.369-1.189.541A58.672,58.672,0,0,1,257,592.738C256.783,592.744,256.55,592.744,256.324,592.744Zm0-167.859c-18.9,0-33.778,26.395-40.961,42.128-10.088,22.1-17.134,49.446-17.134,66.51a58.268,58.268,0,0,0,57.425,58.049c.236.006.456.008.685.006.212,0,.429,0,.64-.005a57.532,57.532,0,0,0,22.779-4.919c.275-.119.548-.24.819-.366V439.324c-.338-.405-.679-.8-1.021-1.189C271.845,429.342,264.028,424.884,256.324,424.884Z" transform="translate(-137.543 -214.361)" fill="#3f3d56"/>
    <path id="Path_15" data-name="Path 15" d="M274.079,613.894a.669.669,0,0,1-.507-.231l-33.745-38.915a.671.671,0,1,1,1.014-.879l33.744,38.915a.671.671,0,0,1-.507,1.111Z" transform="translate(-155.3 -276.852)" fill="#ccc"/>
    <path id="Path_16" data-name="Path 16" d="M298.2,666.516a.671.671,0,0,1-.474-1.145L316.9,646.2a.671.671,0,0,1,.949.949l-19.174,19.175a.669.669,0,0,1-.475.2Z" transform="translate(-179.419 -307.015)" fill="#ccc"/>
    <path id="Path_17" data-name="Path 17" d="M368.707,234.55l.432.851a2.579,2.579,0,0,1,.292,1.19v23.035h20.411V236.591a2.579,2.579,0,0,1,.292-1.19l.432-.851Zm19.968,2.041V258.46H370.6V236.591a3.662,3.662,0,0,0-.105-.875H388.78a3.662,3.662,0,0,0-.1.875Zm5.692-2.041.432.851a2.58,2.58,0,0,1,.292,1.19v23.035H415.5V236.591a2.58,2.58,0,0,1,.292-1.19l.432-.851Zm19.968,2.041V258.46H396.256V236.591a3.662,3.662,0,0,0-.105-.875h18.288a3.66,3.66,0,0,0-.1.875Zm5.692-2.041.432.851a2.58,2.58,0,0,1,.292,1.19v23.035H441.16V236.591a2.58,2.58,0,0,1,.292-1.19l.432-.851Zm19.968,2.041V258.46H421.915V236.591a3.661,3.661,0,0,0-.105-.875H440.1a3.662,3.662,0,0,0-.1.875Zm5.692-2.041.432.851a2.579,2.579,0,0,1,.292,1.19v23.035h20.411V236.591a2.579,2.579,0,0,1,.292-1.19l.432-.851Zm19.968,2.041V258.46H447.574V236.591a3.661,3.661,0,0,0-.105-.875h18.288a3.66,3.66,0,0,0-.1.875Zm5.692-2.041.432.851a2.579,2.579,0,0,1,.292,1.19v23.035h20.411V236.591a2.58,2.58,0,0,1,.292-1.19l.432-.851Zm19.968,2.041V258.46H473.234V236.591a3.659,3.659,0,0,0-.105-.875h18.288a3.665,3.665,0,0,0-.1.875ZM497,234.55l.432.851a2.58,2.58,0,0,1,.292,1.19v23.035h20.411V236.591a2.579,2.579,0,0,1,.292-1.19l.432-.851Zm19.968,2.041V258.46H498.893V236.591a3.661,3.661,0,0,0-.105-.875h18.288a3.663,3.663,0,0,0-.1.875Zm5.692-2.041.432.851a2.579,2.579,0,0,1,.292,1.19v23.035H543.8V236.591a2.58,2.58,0,0,1,.292-1.19l.432-.851Zm19.968,2.041V258.46H524.553V236.591a3.667,3.667,0,0,0-.105-.875h18.288a3.657,3.657,0,0,0-.1.875Zm5.692-2.041.432.851a2.579,2.579,0,0,1,.292,1.19v23.035h20.411V236.591a2.58,2.58,0,0,1,.292-1.19l.432-.851Zm19.968,2.041V258.46H550.212V236.591a3.658,3.658,0,0,0-.105-.875H568.4a3.66,3.66,0,0,0-.1.875Zm5.692-2.041.432.851a2.579,2.579,0,0,1,.292,1.19v23.035h20.411V236.591a2.58,2.58,0,0,1,.292-1.19l.432-.851Zm19.968,2.041V258.46H575.871V236.591a3.661,3.661,0,0,0-.105-.875h18.288a3.663,3.663,0,0,0-.1.875Zm-19.968-2.041.432.851a2.579,2.579,0,0,1,.292,1.19v23.035h20.411V236.591a2.58,2.58,0,0,1,.292-1.19l.432-.851Zm19.968,2.041V258.46H575.871V236.591a3.661,3.661,0,0,0-.105-.875h18.288a3.663,3.663,0,0,0-.1.875Zm-45.627-2.041.432.851a2.58,2.58,0,0,1,.292,1.19v23.035h20.411V236.591a2.579,2.579,0,0,1,.292-1.19l.432-.851Zm19.968,2.041V258.46H550.212V236.591a3.658,3.658,0,0,0-.105-.875H568.4a3.663,3.663,0,0,0-.1.875Zm-45.627-2.041.432.851a2.579,2.579,0,0,1,.292,1.19v23.035H543.8V236.591a2.579,2.579,0,0,1,.292-1.19l.432-.851Zm19.968,2.041V258.46H524.552V236.591a3.655,3.655,0,0,0-.105-.875h18.288a3.663,3.663,0,0,0-.1.875ZM497,234.55l.432.851a2.58,2.58,0,0,1,.292,1.19v23.035h20.411V236.591a2.579,2.579,0,0,1,.292-1.19l.432-.851Zm19.968,2.041V258.46H498.893V236.591a3.659,3.659,0,0,0-.105-.875h18.288a3.66,3.66,0,0,0-.1.875Zm-45.627-2.041.432.851a2.579,2.579,0,0,1,.292,1.19v23.035h20.411V236.591a2.58,2.58,0,0,1,.292-1.19l.432-.851Zm19.968,2.041V258.46H473.234V236.591a3.662,3.662,0,0,0-.105-.875h18.288a3.66,3.66,0,0,0-.1.875Zm-45.627-2.041.432.851a2.58,2.58,0,0,1,.292,1.19v23.035h20.411V236.591a2.58,2.58,0,0,1,.292-1.19l.432-.851Zm19.968,2.041V258.46H447.574V236.591a3.659,3.659,0,0,0-.105-.875h18.288a3.662,3.662,0,0,0-.1.875Zm-45.627-2.041.432.851a2.579,2.579,0,0,1,.292,1.19v23.035h20.411V236.591a2.58,2.58,0,0,1,.292-1.19l.432-.851Zm19.968,2.041V258.46H421.915V236.591a3.662,3.662,0,0,0-.105-.875H440.1a3.66,3.66,0,0,0-.1.875Zm-45.627-2.041.432.851a2.579,2.579,0,0,1,.292,1.19v23.035H415.5V236.591a2.58,2.58,0,0,1,.292-1.19l.432-.851Zm19.968,2.041V258.46H396.255V236.591a3.661,3.661,0,0,0-.105-.875h18.288a3.66,3.66,0,0,0-.1.875Zm-45.627-2.041.432.851a2.58,2.58,0,0,1,.292,1.19v23.035h20.411V236.591a2.58,2.58,0,0,1,.292-1.19l.432-.851Zm19.968,2.041V258.46H370.6V236.591a3.662,3.662,0,0,0-.105-.875h18.288a3.662,3.662,0,0,0-.1.875Zm185.308-2.041.432.851a2.579,2.579,0,0,1,.292,1.19v23.035h20.411V236.591a2.58,2.58,0,0,1,.292-1.19l.432-.851Zm19.968,2.041V258.46H575.871V236.591a3.667,3.667,0,0,0-.105-.875h18.288a3.66,3.66,0,0,0-.1.875Zm-45.627-2.041.432.851a2.58,2.58,0,0,1,.292,1.19v23.035h20.411V236.591a2.58,2.58,0,0,1,.292-1.19l.432-.851Zm19.968,2.041V258.46H550.212V236.591a3.661,3.661,0,0,0-.105-.875H568.4a3.663,3.663,0,0,0-.1.875Zm-45.627-2.041.432.851a2.58,2.58,0,0,1,.292,1.19v23.035H543.8V236.591a2.579,2.579,0,0,1,.292-1.19l.432-.851Zm19.968,2.041V258.46H524.553V236.591a3.658,3.658,0,0,0-.105-.875h18.288a3.66,3.66,0,0,0-.1.875ZM497,234.55l.432.851a2.58,2.58,0,0,1,.292,1.19v23.035h20.411V236.591a2.579,2.579,0,0,1,.292-1.19l.432-.851Zm19.968,2.041V258.46H498.893V236.591a3.661,3.661,0,0,0-.105-.875h18.288a3.663,3.663,0,0,0-.1.875Zm-45.627-2.041.432.851a2.579,2.579,0,0,1,.292,1.19v23.035h20.411V236.591a2.579,2.579,0,0,1,.292-1.19l.432-.851Zm19.968,2.041V258.46H473.234V236.591a3.659,3.659,0,0,0-.105-.875h18.288a3.66,3.66,0,0,0-.1.875Zm-45.627-2.041.432.851a2.579,2.579,0,0,1,.292,1.19v23.035h20.411V236.591a2.58,2.58,0,0,1,.292-1.19l.432-.851Zm19.968,2.041V258.46H447.574V236.591a3.662,3.662,0,0,0-.105-.875h18.288a3.66,3.66,0,0,0-.1.875Zm-45.627-2.041.432.851a2.58,2.58,0,0,1,.292,1.19v23.035H441.16V236.591a2.58,2.58,0,0,1,.292-1.19l.432-.851Zm19.968,2.041V258.46H421.915V236.591a3.661,3.661,0,0,0-.105-.875H440.1a3.662,3.662,0,0,0-.1.875Zm-45.627-2.041.432.851a2.579,2.579,0,0,1,.292,1.19v23.035H415.5V236.591a2.579,2.579,0,0,1,.292-1.19l.432-.851Zm19.968,2.041V258.46H396.256V236.591a3.661,3.661,0,0,0-.105-.875h18.288a3.66,3.66,0,0,0-.1.875Zm-45.627-2.041.432.851a2.579,2.579,0,0,1,.292,1.19v23.035h20.411V236.591a2.579,2.579,0,0,1,.292-1.19l.432-.851Zm19.968,2.041V258.46H370.6V236.591a3.662,3.662,0,0,0-.105-.875h18.288a3.66,3.66,0,0,0-.1.875Zm185.308-2.041.432.851a2.579,2.579,0,0,1,.292,1.19v23.035h20.411V236.591a2.58,2.58,0,0,1,.292-1.19l.432-.851Zm19.968,2.041V258.46H575.872V236.591a3.664,3.664,0,0,0-.105-.875h18.288a3.66,3.66,0,0,0-.1.875Zm-45.627-2.041.432.851a2.579,2.579,0,0,1,.292,1.19v23.035h20.411V236.591a2.58,2.58,0,0,1,.292-1.19l.432-.851Zm19.968,2.041V258.46H550.212V236.591a3.664,3.664,0,0,0-.105-.875H568.4a3.66,3.66,0,0,0-.1.875Zm-45.627-2.041.432.851a2.58,2.58,0,0,1,.292,1.19v23.035H543.8V236.591a2.58,2.58,0,0,1,.292-1.19l.432-.851Zm19.968,2.041V258.46H524.553V236.591a3.661,3.661,0,0,0-.105-.875h18.288a3.66,3.66,0,0,0-.1.875ZM497,234.55l.432.851a2.579,2.579,0,0,1,.292,1.19v23.035h20.411V236.591a2.579,2.579,0,0,1,.292-1.19l.432-.851Zm19.968,2.041V258.46H498.893V236.591a3.659,3.659,0,0,0-.105-.875h18.288a3.663,3.663,0,0,0-.1.875Zm-45.627-2.041.432.851a2.58,2.58,0,0,1,.292,1.19v23.035h20.411V236.591a2.58,2.58,0,0,1,.292-1.19l.432-.851Zm19.968,2.041V258.46H473.234V236.591a3.662,3.662,0,0,0-.105-.875h18.288a3.663,3.663,0,0,0-.1.875Zm-45.627-2.041.432.851a2.58,2.58,0,0,1,.292,1.19v23.035h20.411V236.591a2.58,2.58,0,0,1,.292-1.19l.432-.851Zm19.968,2.041V258.46H447.574V236.591a3.659,3.659,0,0,0-.105-.875h18.288a3.66,3.66,0,0,0-.1.875Zm-45.627-2.041.432.851a2.579,2.579,0,0,1,.292,1.19v23.035H441.16V236.591a2.58,2.58,0,0,1,.292-1.19l.432-.851Zm19.968,2.041V258.46H421.915V236.591a3.661,3.661,0,0,0-.105-.875H440.1a3.66,3.66,0,0,0-.1.875Zm-45.627-2.041.432.851a2.58,2.58,0,0,1,.292,1.19v23.035H415.5V236.591a2.58,2.58,0,0,1,.292-1.19l.432-.851Zm19.968,2.041V258.46H396.256V236.591a3.662,3.662,0,0,0-.105-.875h18.288a3.66,3.66,0,0,0-.1.875Zm-45.627-2.041.432.851a2.579,2.579,0,0,1,.292,1.19v23.035h20.411V236.591a2.579,2.579,0,0,1,.292-1.19l.432-.851Zm19.968,2.041V258.46H370.6V236.591a3.659,3.659,0,0,0-.105-.875H388.78a3.66,3.66,0,0,0-.1.875Zm185.308-2.041.432.851a2.579,2.579,0,0,1,.292,1.19v23.035h20.411V236.591a2.58,2.58,0,0,1,.292-1.19l.432-.851Zm19.968,2.041V258.46H575.872V236.591a3.664,3.664,0,0,0-.105-.875h18.288a3.664,3.664,0,0,0-.1.875Zm-45.627-2.041.432.851a2.579,2.579,0,0,1,.292,1.19v23.035h20.411V236.591a2.58,2.58,0,0,1,.292-1.19l.432-.851Zm19.968,2.041V258.46H550.212V236.591a3.664,3.664,0,0,0-.105-.875H568.4a3.664,3.664,0,0,0-.1.875Zm-45.627-2.041.432.851a2.579,2.579,0,0,1,.292,1.19v23.035H543.8V236.591a2.58,2.58,0,0,1,.292-1.19l.432-.851Zm19.968,2.041V258.46H524.553V236.591a3.664,3.664,0,0,0-.105-.875h18.288a3.66,3.66,0,0,0-.1.875ZM497,234.55l.432.851a2.579,2.579,0,0,1,.292,1.19v23.035h20.411V236.591a2.58,2.58,0,0,1,.292-1.19l.432-.851Zm19.968,2.041V258.46H498.893V236.591a3.661,3.661,0,0,0-.105-.875h18.288a3.66,3.66,0,0,0-.1.875Zm-45.627-2.041.432.851a2.58,2.58,0,0,1,.292,1.19v23.035h20.411V236.591a2.579,2.579,0,0,1,.292-1.19l.432-.851Zm19.968,2.041V258.46H473.234V236.591a3.659,3.659,0,0,0-.105-.875h18.288a3.662,3.662,0,0,0-.1.875Zm-45.627-2.041.432.851a2.579,2.579,0,0,1,.292,1.19v23.035h20.411V236.591a2.58,2.58,0,0,1,.292-1.19l.432-.851Zm19.968,2.041V258.46H447.575V236.591a3.662,3.662,0,0,0-.105-.875h18.288a3.66,3.66,0,0,0-.1.875Zm-45.627-2.041.432.851a2.58,2.58,0,0,1,.292,1.19v23.035H441.16V236.591a2.58,2.58,0,0,1,.292-1.19l.432-.851Zm19.968,2.041V258.46H421.915V236.591a3.661,3.661,0,0,0-.105-.875H440.1a3.662,3.662,0,0,0-.1.875Zm-45.627-2.041.432.851a2.579,2.579,0,0,1,.292,1.19v23.035H415.5V236.591a2.579,2.579,0,0,1,.292-1.19l.432-.851Zm19.968,2.041V258.46H396.256V236.591a3.662,3.662,0,0,0-.105-.875h18.288a3.66,3.66,0,0,0-.1.875Zm-45.627-2.041.432.851a2.579,2.579,0,0,1,.292,1.19v23.035h20.411V236.591a2.58,2.58,0,0,1,.292-1.19l.432-.851Zm19.968,2.041V258.46H370.6V236.591a3.662,3.662,0,0,0-.105-.875H388.78a3.66,3.66,0,0,0-.1.875Zm185.308-2.041.432.851a2.579,2.579,0,0,1,.292,1.19v23.035h20.411V236.591a2.58,2.58,0,0,1,.292-1.19l.432-.851Zm19.968,2.041V258.46H575.872V236.591a3.658,3.658,0,0,0-.105-.875h18.288a3.661,3.661,0,0,0-.1.875Zm-45.2-1.19a2.579,2.579,0,0,1,.292,1.19v23.035h20.411V236.591a2.58,2.58,0,0,1,.292-1.19l.432-.851H548.323Zm19.641.315a3.664,3.664,0,0,0-.105.875V258.46H550.212V236.591a3.664,3.664,0,0,0-.105-.875Zm-45.3-.315a2.579,2.579,0,0,1,.292,1.19v23.035H543.8V236.591a2.579,2.579,0,0,1,.292-1.19l.432-.851H522.663Zm19.641.315a3.66,3.66,0,0,0-.1.875V258.46H524.553V236.591a3.664,3.664,0,0,0-.105-.875Zm-45.3-.315a2.58,2.58,0,0,1,.292,1.19v23.035h20.411V236.591a2.58,2.58,0,0,1,.292-1.19l.432-.851H497Zm19.641.315a3.66,3.66,0,0,0-.1.875V258.46H498.894V236.591a3.659,3.659,0,0,0-.105-.875Zm-45.3-.315a2.579,2.579,0,0,1,.292,1.19v23.035h20.411V236.591a2.579,2.579,0,0,1,.292-1.19l.432-.851H471.344Zm19.641.315a3.66,3.66,0,0,0-.105.875V258.46H473.234V236.591a3.662,3.662,0,0,0-.105-.875Zm-45.3-.315a2.58,2.58,0,0,1,.292,1.19v23.035h20.411V236.591a2.579,2.579,0,0,1,.292-1.19l.432-.851H445.685Zm19.641.315a3.664,3.664,0,0,0-.105.875V258.46H447.575V236.591a3.659,3.659,0,0,0-.105-.875Zm-45.3-.315a2.58,2.58,0,0,1,.292,1.19v23.035H441.16V236.591a2.579,2.579,0,0,1,.292-1.19l.432-.851H420.026Zm19.641.315a3.66,3.66,0,0,0-.105.875V258.46H421.915V236.591a3.661,3.661,0,0,0-.105-.875Zm-45.3-.315a2.58,2.58,0,0,1,.292,1.19v23.035H415.5V236.591a2.579,2.579,0,0,1,.292-1.19l.432-.851H394.366Zm19.641.315a3.66,3.66,0,0,0-.105.875V258.46H396.256V236.591a3.662,3.662,0,0,0-.105-.875Zm-45.3-.315a2.579,2.579,0,0,1,.292,1.19v23.035h20.411V236.591a2.579,2.579,0,0,1,.292-1.19l.432-.851H368.707Zm19.641.315a3.662,3.662,0,0,0-.105.875V258.46H370.6V236.591a3.662,3.662,0,0,0-.105-.875Zm185.634-.315a2.579,2.579,0,0,1,.292,1.19v23.035h20.411V236.591a2.58,2.58,0,0,1,.292-1.19l.432-.851H573.982Zm19.641.315a3.664,3.664,0,0,0-.105.875V258.46H575.872V236.591a3.658,3.658,0,0,0-.105-.875Zm-45.3-.315a2.579,2.579,0,0,1,.292,1.19v23.035h20.411V236.591a2.579,2.579,0,0,1,.292-1.19l.432-.851H548.323Zm19.641.315a3.664,3.664,0,0,0-.105.875V258.46H550.212V236.591a3.658,3.658,0,0,0-.105-.875Zm-45.3-.315a2.579,2.579,0,0,1,.292,1.19v23.035H543.8V236.591a2.579,2.579,0,0,1,.292-1.19l.432-.851H522.663Zm19.641.315a3.664,3.664,0,0,0-.105.875V258.46H524.553V236.591a3.664,3.664,0,0,0-.105-.875Zm-45.3-.315a2.579,2.579,0,0,1,.292,1.19v23.035h20.411V236.591a2.58,2.58,0,0,1,.292-1.19l.432-.851H497Zm19.641.315a3.66,3.66,0,0,0-.1.875V258.46H498.894V236.591a3.661,3.661,0,0,0-.105-.875Zm-45.3-.315a2.58,2.58,0,0,1,.292,1.19v23.035h20.411V236.591a2.58,2.58,0,0,1,.292-1.19l.432-.851H471.344Zm19.641.315a3.664,3.664,0,0,0-.105.875V258.46H473.234V236.591a3.659,3.659,0,0,0-.105-.875Zm-45.3-.315a2.579,2.579,0,0,1,.292,1.19v23.035h20.411V236.591a2.58,2.58,0,0,1,.292-1.19l.432-.851H445.685Zm19.641.315a3.66,3.66,0,0,0-.105.875V258.46H447.575V236.591a3.662,3.662,0,0,0-.105-.875Zm-45.3-.315a2.579,2.579,0,0,1,.292,1.19v23.035H441.16V236.591a2.58,2.58,0,0,1,.292-1.19l.432-.851H420.026Zm19.641.315a3.662,3.662,0,0,0-.105.875V258.46H421.915V236.591a3.661,3.661,0,0,0-.105-.875Zm-45.3-.315a2.579,2.579,0,0,1,.292,1.19v23.035H415.5V236.591a2.58,2.58,0,0,1,.292-1.19l.432-.851H394.366Zm19.641.315a3.66,3.66,0,0,0-.105.875V258.46H396.256V236.591a3.659,3.659,0,0,0-.105-.875Zm-45.3-.315a2.58,2.58,0,0,1,.292,1.19v23.035h20.411V236.591a2.579,2.579,0,0,1,.292-1.19l.432-.851H368.707Zm19.641.315a3.66,3.66,0,0,0-.105.875V258.46H370.6V236.591a3.661,3.661,0,0,0-.105-.875Zm229.663,27.409h-6.951a6.433,6.433,0,0,0-6.17-4.665h-3.791V236.591a3.645,3.645,0,0,0-.262-1.37,3.493,3.493,0,0,0-1.779-6.5H365.057a3.493,3.493,0,0,0-1.779,6.5,3.645,3.645,0,0,0-.263,1.37V258.46h-3.791a6.433,6.433,0,0,0-6.17,4.665h-7.534a5.256,5.256,0,0,0-5.249,5.249V576.286a5.26,5.26,0,0,0,5.249,5.248H618.443a5.256,5.256,0,0,0,5.249-5.249V268.373A5.256,5.256,0,0,0,618.443,263.125Zm4.082,313.161a4.085,4.085,0,0,1-2.665,3.826,3.919,3.919,0,0,1-1.417.257H345.52a3.921,3.921,0,0,1-1.417-.257,4.085,4.085,0,0,1-2.665-3.826V268.373a4.087,4.087,0,0,1,4.082-4.082h8.468l.093-.467a5.267,5.267,0,0,1,5.143-4.2h4.957V236.591a2.621,2.621,0,0,1,.373-1.347l.361-.6-.659-.245a2.326,2.326,0,0,1,.8-4.514H599.49a2.326,2.326,0,0,1,.8,4.514l-.659.245.361.6a2.617,2.617,0,0,1,.373,1.347v23.035h4.957a5.267,5.267,0,0,1,5.143,4.2l.093.467h7.884a4.087,4.087,0,0,1,4.082,4.082ZM368.707,234.55l.432.851a2.579,2.579,0,0,1,.292,1.19v23.035h20.411V236.591a2.579,2.579,0,0,1,.292-1.19l.432-.851Zm19.968,2.041V258.46H370.6V236.591a3.659,3.659,0,0,0-.105-.875H388.78a3.662,3.662,0,0,0-.105.875Zm5.692-2.041.432.851a2.579,2.579,0,0,1,.292,1.19v23.035H415.5V236.591a2.579,2.579,0,0,1,.292-1.19l.432-.851Zm19.968,2.041V258.46H396.256V236.591a3.662,3.662,0,0,0-.105-.875h18.288a3.66,3.66,0,0,0-.105.875Zm5.692-2.041.432.851a2.579,2.579,0,0,1,.292,1.19v23.035H441.16V236.591a2.58,2.58,0,0,1,.292-1.19l.432-.851Zm19.968,2.041V258.46H421.916V236.591a3.662,3.662,0,0,0-.105-.875H440.1a3.662,3.662,0,0,0-.105.875Zm5.692-2.041.432.851a2.579,2.579,0,0,1,.292,1.19v23.035H466.82V236.591a2.58,2.58,0,0,1,.292-1.19l.432-.851Zm19.968,2.041V258.46H447.575V236.591a3.659,3.659,0,0,0-.105-.875h18.288a3.662,3.662,0,0,0-.105.875Zm5.692-2.041.432.851a2.579,2.579,0,0,1,.292,1.19v23.035h20.411V236.591a2.58,2.58,0,0,1,.292-1.19l.432-.851Zm19.968,2.041V258.46H473.234V236.591a3.662,3.662,0,0,0-.105-.875h18.288a3.657,3.657,0,0,0-.105.875ZM497,234.55l.432.851a2.579,2.579,0,0,1,.292,1.19v23.035h20.411V236.591a2.58,2.58,0,0,1,.292-1.19l.432-.851Zm19.968,2.041V258.46H498.894V236.591a3.659,3.659,0,0,0-.105-.875h18.288a3.66,3.66,0,0,0-.1.875Zm5.692-2.041.432.851a2.58,2.58,0,0,1,.292,1.19v23.035H543.8V236.591a2.579,2.579,0,0,1,.292-1.19l.432-.851Zm19.968,2.041V258.46H524.553V236.591a3.655,3.655,0,0,0-.105-.875h18.288a3.664,3.664,0,0,0-.1.875Zm5.692-2.041.432.851a2.58,2.58,0,0,1,.292,1.19v23.035h20.411V236.591a2.581,2.581,0,0,1,.292-1.19l.432-.851Zm19.968,2.041V258.46H550.213V236.591a3.667,3.667,0,0,0-.105-.875H568.4a3.66,3.66,0,0,0-.1.875Zm5.692-2.041.432.851a2.579,2.579,0,0,1,.292,1.19v23.035h20.411V236.591a2.579,2.579,0,0,1,.292-1.19l.432-.851Zm19.968,2.041V258.46H575.872V236.591a3.658,3.658,0,0,0-.105-.875h18.288a3.66,3.66,0,0,0-.1.875ZM368.707,234.55l.432.851a2.579,2.579,0,0,1,.292,1.19v23.035h20.411V236.591a2.579,2.579,0,0,1,.292-1.19l.432-.851Zm19.968,2.041V258.46H370.6V236.591a3.661,3.661,0,0,0-.105-.875H388.78a3.66,3.66,0,0,0-.1.875Zm5.692-2.041.432.851a2.58,2.58,0,0,1,.292,1.19v23.035H415.5V236.591a2.58,2.58,0,0,1,.292-1.19l.432-.851Zm19.968,2.041V258.46H396.256V236.591a3.662,3.662,0,0,0-.105-.875h18.288a3.66,3.66,0,0,0-.1.875Zm5.692-2.041.432.851a2.58,2.58,0,0,1,.292,1.19v23.035H441.16V236.591a2.58,2.58,0,0,1,.292-1.19l.432-.851Zm19.968,2.041V258.46H421.915V236.591a3.661,3.661,0,0,0-.105-.875H440.1a3.662,3.662,0,0,0-.1.875Zm5.692-2.041.432.851a2.58,2.58,0,0,1,.292,1.19v23.035h20.411V236.591a2.579,2.579,0,0,1,.292-1.19l.432-.851Zm19.968,2.041V258.46H447.575V236.591a3.661,3.661,0,0,0-.105-.875h18.288a3.662,3.662,0,0,0-.1.875Zm5.692-2.041.432.851a2.579,2.579,0,0,1,.292,1.19v23.035h20.411V236.591a2.58,2.58,0,0,1,.292-1.19l.432-.851Zm19.968,2.041V258.46H473.234V236.591a3.659,3.659,0,0,0-.105-.875h18.288a3.659,3.659,0,0,0-.1.875ZM497,234.55l.432.851a2.58,2.58,0,0,1,.292,1.19v23.035h20.411V236.591a2.581,2.581,0,0,1,.292-1.19l.432-.851Zm19.968,2.041V258.46H498.894V236.591a3.661,3.661,0,0,0-.105-.875h18.288a3.66,3.66,0,0,0-.1.875Zm5.692-2.041.432.851a2.579,2.579,0,0,1,.292,1.19v23.035H543.8V236.591a2.579,2.579,0,0,1,.292-1.19l.432-.851Zm19.968,2.041V258.46H524.553V236.591a3.658,3.658,0,0,0-.105-.875h18.288a3.66,3.66,0,0,0-.1.875Zm5.692-2.041.432.851a2.58,2.58,0,0,1,.292,1.19v23.035h20.411V236.591a2.58,2.58,0,0,1,.292-1.19l.432-.851Zm19.968,2.041V258.46H550.212V236.591a3.661,3.661,0,0,0-.105-.875H568.4a3.66,3.66,0,0,0-.1.875Zm5.692-2.041.432.851a2.579,2.579,0,0,1,.292,1.19v23.035h20.411V236.591a2.58,2.58,0,0,1,.292-1.19l.432-.851Zm19.968,2.041V258.46H575.872V236.591a3.658,3.658,0,0,0-.105-.875h18.288a3.661,3.661,0,0,0-.1.875ZM368.707,234.55l.432.851a2.58,2.58,0,0,1,.292,1.19v23.035h20.411V236.591a2.58,2.58,0,0,1,.292-1.19l.432-.851Zm19.968,2.041V258.46H370.6V236.591a3.662,3.662,0,0,0-.105-.875H388.78a3.662,3.662,0,0,0-.1.875Zm5.692-2.041.432.851a2.58,2.58,0,0,1,.292,1.19v23.035H415.5V236.591a2.579,2.579,0,0,1,.292-1.19l.432-.851Zm19.968,2.041V258.46H396.256V236.591a3.659,3.659,0,0,0-.105-.875h18.288a3.66,3.66,0,0,0-.1.875Zm5.692-2.041.432.851a2.58,2.58,0,0,1,.292,1.19v23.035H441.16V236.591a2.58,2.58,0,0,1,.292-1.19l.432-.851Zm19.968,2.041V258.46H421.915V236.591a3.661,3.661,0,0,0-.105-.875H440.1a3.66,3.66,0,0,0-.1.875Zm5.692-2.041.432.851a2.579,2.579,0,0,1,.292,1.19v23.035h20.411V236.591a2.58,2.58,0,0,1,.292-1.19l.432-.851Zm19.968,2.041V258.46H447.575V236.591a3.659,3.659,0,0,0-.105-.875h18.288a3.662,3.662,0,0,0-.1.875Zm5.692-2.041.432.851a2.58,2.58,0,0,1,.292,1.19v23.035h20.411V236.591a2.58,2.58,0,0,1,.292-1.19l.432-.851Zm19.968,2.041V258.46H473.234V236.591a3.659,3.659,0,0,0-.105-.875h18.288a3.657,3.657,0,0,0-.1.875ZM497,234.55l.432.851a2.579,2.579,0,0,1,.292,1.19v23.035h20.411V236.591a2.579,2.579,0,0,1,.292-1.19l.432-.851Zm19.968,2.041V258.46H498.894V236.591a3.659,3.659,0,0,0-.105-.875h18.288a3.661,3.661,0,0,0-.1.875Zm5.692-2.041.432.851a2.579,2.579,0,0,1,.292,1.19v23.035H543.8V236.591a2.579,2.579,0,0,1,.292-1.19l.432-.851Zm19.968,2.041V258.46H524.553V236.591a3.658,3.658,0,0,0-.105-.875h18.288a3.657,3.657,0,0,0-.1.875Zm5.692-2.041.432.851a2.579,2.579,0,0,1,.292,1.19v23.035h20.411V236.591a2.58,2.58,0,0,1,.292-1.19l.432-.851Zm19.968,2.041V258.46H550.212V236.591a3.661,3.661,0,0,0-.105-.875H568.4a3.664,3.664,0,0,0-.1.875Zm5.692-2.041.432.851a2.579,2.579,0,0,1,.292,1.19v23.035h20.411V236.591a2.58,2.58,0,0,1,.292-1.19l.432-.851Zm19.968,2.041V258.46H575.872V236.591a3.664,3.664,0,0,0-.105-.875h18.288a3.664,3.664,0,0,0-.1.875ZM368.707,234.55l.432.851a2.579,2.579,0,0,1,.292,1.19v23.035h20.411V236.591a2.58,2.58,0,0,1,.292-1.19l.432-.851Zm19.968,2.041V258.46H370.6V236.591a3.659,3.659,0,0,0-.105-.875H388.78a3.659,3.659,0,0,0-.1.875Zm5.692-2.041.432.851a2.579,2.579,0,0,1,.292,1.19v23.035H415.5V236.591a2.58,2.58,0,0,1,.292-1.19l.432-.851Zm19.968,2.041V258.46H396.256V236.591a3.662,3.662,0,0,0-.105-.875h18.288a3.662,3.662,0,0,0-.1.875Zm5.692-2.041.432.851a2.579,2.579,0,0,1,.292,1.19v23.035H441.16V236.591a2.58,2.58,0,0,1,.292-1.19l.432-.851Zm19.968,2.041V258.46H421.915V236.591a3.661,3.661,0,0,0-.105-.875H440.1a3.66,3.66,0,0,0-.1.875Zm5.692-2.041.432.851a2.58,2.58,0,0,1,.292,1.19v23.035h20.411V236.591a2.579,2.579,0,0,1,.292-1.19l.432-.851Zm19.968,2.041V258.46H447.575V236.591a3.661,3.661,0,0,0-.105-.875h18.288a3.662,3.662,0,0,0-.1.875Zm5.692-2.041.432.851a2.579,2.579,0,0,1,.292,1.19v23.035h20.411V236.591a2.58,2.58,0,0,1,.292-1.19l.432-.851Zm19.968,2.041V258.46H473.234V236.591a3.659,3.659,0,0,0-.105-.875h18.288a3.659,3.659,0,0,0-.1.875ZM497,234.55l.432.851a2.579,2.579,0,0,1,.292,1.19v23.035h20.411V236.591a2.58,2.58,0,0,1,.292-1.19l.432-.851Zm19.968,2.041V258.46H498.893V236.591a3.661,3.661,0,0,0-.105-.875h18.288a3.66,3.66,0,0,0-.1.875Zm5.692-2.041.432.851a2.579,2.579,0,0,1,.292,1.19v23.035H543.8V236.591a2.58,2.58,0,0,1,.292-1.19l.432-.851Zm19.968,2.041V258.46H524.553V236.591a3.664,3.664,0,0,0-.105-.875h18.288a3.66,3.66,0,0,0-.1.875Zm5.692-2.041.432.851a2.58,2.58,0,0,1,.292,1.19v23.035h20.411V236.591a2.579,2.579,0,0,1,.292-1.19l.432-.851Zm19.968,2.041V258.46H550.212V236.591a3.655,3.655,0,0,0-.105-.875H568.4a3.667,3.667,0,0,0-.1.875Zm5.692-2.041.432.851a2.579,2.579,0,0,1,.292,1.19v23.035h20.411V236.591a2.58,2.58,0,0,1,.292-1.19l.432-.851Zm19.968,2.041V258.46H575.872V236.591a3.664,3.664,0,0,0-.105-.875h18.288a3.66,3.66,0,0,0-.1.875Z" transform="translate(-197.237 -133.079)" fill="#3f3d56"/>
    <path id="Path_18" data-name="Path 18" d="M474.744,392.46h-43a3.42,3.42,0,0,1-3.416-3.416V366.134a3.42,3.42,0,0,1,3.416-3.416h43a3.42,3.42,0,0,1,3.416,3.416v22.909A3.42,3.42,0,0,1,474.744,392.46Z" transform="translate(-233.94 -188.934)" fill="#fab708"/>
    <path id="Path_19" data-name="Path 19" d="M586.963,392.46h-43a3.42,3.42,0,0,1-3.416-3.416V366.134a3.42,3.42,0,0,1,3.416-3.416h43a3.42,3.42,0,0,1,3.416,3.416v22.909a3.42,3.42,0,0,1-3.416,3.416Z" transform="translate(-280.716 -188.934)" fill="#fab708"/>
    <path id="Path_20" data-name="Path 20" d="M699.183,392.46h-43a3.42,3.42,0,0,1-3.416-3.416V366.134a3.42,3.42,0,0,1,3.416-3.416h43a3.42,3.42,0,0,1,3.416,3.416v22.909a3.42,3.42,0,0,1-3.416,3.416Z" transform="translate(-327.493 -188.934)" fill="#fab708"/>
    <path id="Path_21" data-name="Path 21" d="M474.744,523.46h-43a3.42,3.42,0,0,1-3.416-3.416V497.134a3.42,3.42,0,0,1,3.416-3.416h43a3.42,3.42,0,0,1,3.416,3.416v22.909A3.42,3.42,0,0,1,474.744,523.46Z" transform="translate(-233.94 -243.539)" fill="#fab708"/>
    <path id="Path_22" data-name="Path 22" d="M586.963,523.46h-43a3.42,3.42,0,0,1-3.416-3.416V497.134a3.42,3.42,0,0,1,3.416-3.416h43a3.42,3.42,0,0,1,3.416,3.416v22.909a3.42,3.42,0,0,1-3.416,3.416Z" transform="translate(-280.716 -243.539)" fill="#fab708"/>
    <path id="Path_23" data-name="Path 23" d="M699.183,523.46h-43a3.42,3.42,0,0,1-3.416-3.416V497.134a3.42,3.42,0,0,1,3.416-3.416h43a3.42,3.42,0,0,1,3.416,3.416v22.909a3.42,3.42,0,0,1-3.416,3.416Z" transform="translate(-327.493 -243.539)" fill="#fab708"/>
    <path id="Path_24" data-name="Path 24" d="M474.744,654.46h-43a3.42,3.42,0,0,1-3.416-3.416V628.134a3.42,3.42,0,0,1,3.416-3.416h43a3.42,3.42,0,0,1,3.416,3.416v22.909A3.42,3.42,0,0,1,474.744,654.46Z" transform="translate(-233.94 -298.144)" fill="#fab708"/>
    <path id="Path_25" data-name="Path 25" d="M586.963,654.46h-43a3.42,3.42,0,0,1-3.416-3.416V628.134a3.42,3.42,0,0,1,3.416-3.416h43a3.42,3.42,0,0,1,3.416,3.416v22.909a3.42,3.42,0,0,1-3.416,3.416Z" transform="translate(-280.716 -298.144)" fill="#fab708"/>
    <path id="Path_26" data-name="Path 26" d="M699.183,654.46h-43a3.42,3.42,0,0,1-3.416-3.416V628.134a3.42,3.42,0,0,1,3.416-3.416h43a3.42,3.42,0,0,1,3.416,3.416v22.909a3.42,3.42,0,0,1-3.416,3.416Z" transform="translate(-327.493 -298.144)" fill="#fab708"/>
    <path id="Path_27" data-name="Path 27" d="M457.131,393.3H407.312a4.546,4.546,0,0,1-4.541-4.541V362.218a4.546,4.546,0,0,1,4.541-4.541h49.819a4.546,4.546,0,0,1,4.541,4.541v26.539a4.546,4.546,0,0,1-4.541,4.541Zm-49.819-34.454a3.378,3.378,0,0,0-3.374,3.375v26.539a3.378,3.378,0,0,0,3.374,3.375h49.819a3.378,3.378,0,0,0,3.374-3.375V362.218a3.378,3.378,0,0,0-3.374-3.375Z" transform="translate(-223.289 -186.833)" fill="#3f3d56"/>
    <path id="Path_28" data-name="Path 28" d="M587.131,393.3H537.312a4.546,4.546,0,0,1-4.541-4.541V362.218a4.546,4.546,0,0,1,4.541-4.541h49.818a4.546,4.546,0,0,1,4.541,4.541v26.539A4.546,4.546,0,0,1,587.131,393.3Zm-49.818-34.454a3.378,3.378,0,0,0-3.374,3.375v26.539a3.378,3.378,0,0,0,3.374,3.375h49.818a3.378,3.378,0,0,0,3.374-3.375V362.218a3.378,3.378,0,0,0-3.374-3.375Z" transform="translate(-277.477 -186.833)" fill="#3f3d56"/>
    <path id="Path_29" data-name="Path 29" d="M717.131,393.3H667.312a4.546,4.546,0,0,1-4.541-4.541V362.218a4.546,4.546,0,0,1,4.541-4.541h49.818a4.546,4.546,0,0,1,4.541,4.541v26.539A4.546,4.546,0,0,1,717.131,393.3Zm-49.818-34.454a3.378,3.378,0,0,0-3.374,3.375v26.539a3.378,3.378,0,0,0,3.374,3.375h49.818a3.378,3.378,0,0,0,3.374-3.375V362.218a3.378,3.378,0,0,0-3.374-3.375Z" transform="translate(-331.665 -186.833)" fill="#3f3d56"/>
    <path id="Path_30" data-name="Path 30" d="M457.131,524.3H407.312a4.546,4.546,0,0,1-4.541-4.541V493.218a4.546,4.546,0,0,1,4.541-4.541h49.819a4.546,4.546,0,0,1,4.541,4.541v26.539a4.546,4.546,0,0,1-4.541,4.541Zm-49.819-34.454a3.378,3.378,0,0,0-3.374,3.375v26.539a3.378,3.378,0,0,0,3.374,3.375h49.819a3.378,3.378,0,0,0,3.374-3.375V493.218a3.378,3.378,0,0,0-3.374-3.375Z" transform="translate(-223.289 -241.438)" fill="#3f3d56"/>
    <path id="Path_31" data-name="Path 31" d="M587.131,524.3H537.312a4.546,4.546,0,0,1-4.541-4.541V493.218a4.546,4.546,0,0,1,4.541-4.541h49.818a4.546,4.546,0,0,1,4.541,4.541v26.539A4.546,4.546,0,0,1,587.131,524.3Zm-49.818-34.454a3.378,3.378,0,0,0-3.374,3.375v26.539a3.378,3.378,0,0,0,3.374,3.375h49.818a3.378,3.378,0,0,0,3.374-3.375V493.218a3.378,3.378,0,0,0-3.374-3.375Z" transform="translate(-277.477 -241.438)" fill="#3f3d56"/>
    <path id="Path_32" data-name="Path 32" d="M717.131,524.3H667.312a4.546,4.546,0,0,1-4.541-4.541V493.218a4.546,4.546,0,0,1,4.541-4.541h49.818a4.546,4.546,0,0,1,4.541,4.541v26.539A4.546,4.546,0,0,1,717.131,524.3Zm-49.818-34.454a3.378,3.378,0,0,0-3.374,3.375v26.539a3.378,3.378,0,0,0,3.374,3.375h49.818a3.378,3.378,0,0,0,3.374-3.375V493.218a3.378,3.378,0,0,0-3.374-3.375Z" transform="translate(-331.665 -241.438)" fill="#3f3d56"/>
    <path id="Path_33" data-name="Path 33" d="M457.131,655.3H407.312a4.546,4.546,0,0,1-4.541-4.541V624.218a4.546,4.546,0,0,1,4.541-4.541h49.819a4.546,4.546,0,0,1,4.541,4.541v26.539a4.546,4.546,0,0,1-4.541,4.541Zm-49.819-34.454a3.378,3.378,0,0,0-3.374,3.375v26.539a3.378,3.378,0,0,0,3.374,3.375h49.819a3.378,3.378,0,0,0,3.374-3.375V624.218a3.378,3.378,0,0,0-3.374-3.375Z" transform="translate(-223.289 -296.043)" fill="#3f3d56"/>
    <path id="Path_34" data-name="Path 34" d="M587.131,655.3H537.312a4.546,4.546,0,0,1-4.541-4.541V624.218a4.546,4.546,0,0,1,4.541-4.541h49.818a4.546,4.546,0,0,1,4.541,4.541v26.539A4.546,4.546,0,0,1,587.131,655.3Zm-49.818-34.454a3.378,3.378,0,0,0-3.374,3.375v26.539a3.378,3.378,0,0,0,3.374,3.375h49.818a3.378,3.378,0,0,0,3.374-3.375V624.218a3.378,3.378,0,0,0-3.374-3.375Z" transform="translate(-277.477 -296.043)" fill="#3f3d56"/>
    <path id="Path_35" data-name="Path 35" d="M717.131,655.3H667.312a4.546,4.546,0,0,1-4.541-4.541V624.218a4.546,4.546,0,0,1,4.541-4.541h49.818a4.546,4.546,0,0,1,4.541,4.541v26.539A4.546,4.546,0,0,1,717.131,655.3Zm-49.818-34.454a3.378,3.378,0,0,0-3.374,3.375v26.539a3.378,3.378,0,0,0,3.374,3.375h49.818a3.378,3.378,0,0,0,3.374-3.375V624.218a3.378,3.378,0,0,0-3.374-3.375Z" transform="translate(-331.665 -296.043)" fill="#3f3d56"/>
    <path id="Path_36" data-name="Path 36" d="M683.417,834.384H95.583a.583.583,0,0,1,0-1.166H683.417a.583.583,0,0,1,0,1.166Z" transform="translate(-95 -385.053)" fill="#3f3d56"/>
    <path id="Path_37" data-name="Path 37" d="M612.722,734.8a5.019,5.019,0,0,0-4.957-5.08H583.272v60.358h29.45Z" transform="translate(-298.527 -341.912)" fill="#3f3d56"/>
    <path id="Path_38" data-name="Path 38" d="M562.388,789.284H531.772V734.758a5.546,5.546,0,0,1,5.54-5.54h25.076Zm-29.45-1.166h28.284V730.384h-23.91a4.379,4.379,0,0,0-4.374,4.374Z" transform="translate(-277.06 -341.703)" fill="#3f3d56"/>
    <circle id="Ellipse_6" data-name="Ellipse 6" cx="1.75" cy="1.75" r="1.75" transform="translate(256.753 418.132)" fill="#3f3d56"/>
  </g>
</svg>
