<svg xmlns="http://www.w3.org/2000/svg" xmlns:xlink="http://www.w3.org/1999/xlink" width="129" height="49" viewBox="0 0 129 49">
  <defs>
    <clipPath id="clip-path">
      <rect width="129" height="49" fill="none"/>
    </clipPath>
  </defs>
  <g id="Group_4" data-name="Group 4" transform="translate(-532 -199)">
    <g id="Repeat_Grid_2" data-name="Repeat Grid 2" transform="translate(532 199)" clip-path="url(#clip-path)">
      <g transform="translate(-637 -200)">
        <circle id="Ellipse_3" data-name="Ellipse 3" cx="3.5" cy="3.5" r="3.5" transform="translate(639 204)" fill="#5a637b"/>
      </g>
      <g transform="translate(-619 -200)">
        <circle id="Ellipse_3-2" data-name="Ellipse 3" cx="3.5" cy="3.5" r="3.5" transform="translate(639 204)" fill="#5a637b"/>
      </g>
      <g transform="translate(-601 -200)">
        <circle id="Ellipse_3-3" data-name="Ellipse 3" cx="3.5" cy="3.5" r="3.5" transform="translate(639 204)" fill="#5a637b"/>
      </g>
      <g transform="translate(-583 -200)">
        <circle id="Ellipse_3-4" data-name="Ellipse 3" cx="3.5" cy="3.5" r="3.5" transform="translate(639 204)" fill="#5a637b"/>
      </g>
      <g transform="translate(-565 -200)">
        <circle id="Ellipse_3-5" data-name="Ellipse 3" cx="3.5" cy="3.5" r="3.5" transform="translate(639 204)" fill="#5a637b"/>
      </g>
      <g transform="translate(-547 -200)">
        <circle id="Ellipse_3-6" data-name="Ellipse 3" cx="3.5" cy="3.5" r="3.5" transform="translate(639 204)" fill="#5a637b"/>
      </g>
      <g transform="translate(-529 -200)">
        <circle id="Ellipse_3-7" data-name="Ellipse 3" cx="3.5" cy="3.5" r="3.5" transform="translate(639 204)" fill="#5a637b"/>
      </g>
      <g transform="translate(-637 -184)">
        <circle id="Ellipse_3-8" data-name="Ellipse 3" cx="3.5" cy="3.5" r="3.5" transform="translate(639 204)" fill="#5a637b"/>
      </g>
      <g transform="translate(-619 -184)">
        <circle id="Ellipse_3-9" data-name="Ellipse 3" cx="3.5" cy="3.5" r="3.5" transform="translate(639 204)" fill="#5a637b"/>
      </g>
      <g transform="translate(-601 -184)">
        <circle id="Ellipse_3-10" data-name="Ellipse 3" cx="3.5" cy="3.5" r="3.5" transform="translate(639 204)" fill="#5a637b"/>
      </g>
      <g transform="translate(-583 -184)">
        <circle id="Ellipse_3-11" data-name="Ellipse 3" cx="3.5" cy="3.5" r="3.5" transform="translate(639 204)" fill="#5a637b"/>
      </g>
      <g transform="translate(-565 -184)">
        <circle id="Ellipse_3-12" data-name="Ellipse 3" cx="3.5" cy="3.5" r="3.5" transform="translate(639 204)" fill="#5a637b"/>
      </g>
      <g transform="translate(-547 -184)">
        <circle id="Ellipse_3-13" data-name="Ellipse 3" cx="3.5" cy="3.5" r="3.5" transform="translate(639 204)" fill="#5a637b"/>
      </g>
      <g transform="translate(-529 -184)">
        <circle id="Ellipse_3-14" data-name="Ellipse 3" cx="3.5" cy="3.5" r="3.5" transform="translate(639 204)" fill="#5a637b"/>
      </g>
      <g transform="translate(-637 -168)">
        <circle id="Ellipse_3-15" data-name="Ellipse 3" cx="3.5" cy="3.5" r="3.5" transform="translate(639 204)" fill="#5a637b"/>
      </g>
      <g transform="translate(-619 -168)">
        <circle id="Ellipse_3-16" data-name="Ellipse 3" cx="3.5" cy="3.5" r="3.5" transform="translate(639 204)" fill="#5a637b"/>
      </g>
      <g transform="translate(-601 -168)">
        <circle id="Ellipse_3-17" data-name="Ellipse 3" cx="3.5" cy="3.5" r="3.5" transform="translate(639 204)" fill="#5a637b"/>
      </g>
      <g transform="translate(-583 -168)">
        <circle id="Ellipse_3-18" data-name="Ellipse 3" cx="3.5" cy="3.5" r="3.5" transform="translate(639 204)" fill="#5a637b"/>
      </g>
      <g transform="translate(-565 -168)">
        <circle id="Ellipse_3-19" data-name="Ellipse 3" cx="3.5" cy="3.5" r="3.5" transform="translate(639 204)" fill="#5a637b"/>
      </g>
      <g transform="translate(-547 -168)">
        <circle id="Ellipse_3-20" data-name="Ellipse 3" cx="3.5" cy="3.5" r="3.5" transform="translate(639 204)" fill="#5a637b"/>
      </g>
      <g transform="translate(-529 -168)">
        <circle id="Ellipse_3-21" data-name="Ellipse 3" cx="3.5" cy="3.5" r="3.5" transform="translate(639 204)" fill="#5a637b"/>
      </g>
    </g>
  </g>
</svg>
